<svg id="bgColor" xmlns="http://www.w3.org/2000/svg" xmlns:xlink="http://www.w3.org/1999/xlink" viewBox="0 0 1280 758.42"><defs><style>.cls-1,.cls-14,.cls-8{fill:none;}.cls-2{fill:#fcf7e3;}.cls-3{opacity:0.5;}.cls-4{fill:url(#linear-gradient);}.cls-5{fill:#fdfbf1;}.cls-6{fill:#ffec79;}.cls-7{clip-path:url(#clip-path);}.cls-8{stroke:#ffe85f;}.cls-14,.cls-8{stroke-miterlimit:10;}.cls-9{clip-path:url(#clip-path-2);}.cls-10{clip-path:url(#clip-path-3);}.cls-11{fill:url(#linear-gradient-2);}.cls-12{fill:#ffdd4d;}.cls-13{clip-path:url(#clip-path-4);}.cls-14{stroke:#fdfbf1;}.cls-15{fill:url(#linear-gradient-3);}.cls-16{fill:#ffe87c;}.cls-17{fill:url(#linear-gradient-4);}.cls-18{clip-path:url(#clip-path-5);}.cls-19{fill:#eace24;}.cls-20{fill:#efd830;}.cls-21{fill:url(#linear-gradient-5);}</style><linearGradient id="linear-gradient" x1="90.59" y1="52.82" x2="242.51" y2="52.82" gradientTransform="matrix(-0.85, 0.53, 0.53, 0.85, 191.15, -54.3)" gradientUnits="userSpaceOnUse"><stop offset="0" stop-color="#fff09c"/><stop offset="1" stop-color="#ffeda3"/></linearGradient><clipPath id="clip-path"><path class="cls-1" d="M1150.15-35.43h-384s-31-1.63-31,18.36,28,16.67,28,16.67l88.42-1.16s23-1.08,20,10.91-13.37,10-22.36,10-133.26,1-133.26,1-30-2-30,20,29,20,29,20l235.57,1s16.23-2.35,15.49,6.49C965.13,78.21,953.59,75,947.89,75c-1.58,0-18.86-.74-18.86-.74s-23-1-22,16,12,18,22,18.49c1.8.09,8.76.2,19,.31,9.86,1.31,8.73,7.49,8.73,7.49,1.4,9.08-10.52,7.6-10.52,7.6l-90.16,1s-26.49-2.5-25.49,17.49,23.48,20,23.48,20,168.12-1,178.11-1.5,21-1.5,22-18.49-22-16-22-16-17.36.74-18.95.74c-5.7,0-16.89,3.18-18.29-7.23-1.16-8.59,8.41-10.28,13.66-10.57,47.54.36,98.66.66,98.66.66s22.49,0,23.49-20-25.49-17.49-25.49-17.49l-90.16-1s-6.27-1.55-5.7-5.53c.44-3.07-2.24-5.76,10.18-5.46,8.24.2,25.49,0,25.49,0s20.91-1.56,20-25.48c-.75-19.47-16.49-20-25.48-20.49s-58.46,0-58.46,0-15.42,1.59-15.42-5.45c0-8.19,16.42-7.76,16.42-7.76h172.15s17-1.51,17-20S1154.15-35.43,1150.15-35.43Z"/></clipPath><clipPath id="clip-path-2"><path class="cls-1" d="M163.83,214.57H472.58s35.32,1.86,35.32-20.93-31.9-19-31.9-19L398.9,176s-16.67,1.65-16.67-12.44c0-12.61,18.41-11.35,28.67-11.35S555.82,151,555.82,151,590,153.34,590,128.27s-33-22.78-33-22.78l-55.55-1.14S479.9,107.07,479.9,97c0-8.88,18.09-6.84,19.8-7.41s26.2,0,26.2,0,26.2,1.14,25.07-18.23S537.29,50.81,525.9,50.24s-119.06-1.71-119.06-1.71-25.63,0-26.77,22.79,29.05,19.94,29.05,19.94l14.81,1.14s6.52,1.68,6.27,6.27c-.3,5.41-5.32,5.7-13.3,6.27s-225.16,0-225.16,0S169,111.76,169,134s18.8,22.79,29.05,23.36,60.89,0,60.89,0,18.29-3.49,18.29,8.47-25.62,6.76-25.62,6.76h-92.3s-19.37,1.63-19.37,22.71S159.27,214.57,163.83,214.57Z"/></clipPath><clipPath id="clip-path-3"><rect class="cls-1" x="-31" y="-20.43" width="1343" height="797"/></clipPath><linearGradient id="linear-gradient-2" x1="647.77" y1="178.68" x2="647.77" y2="379.82" gradientTransform="matrix(1, 0, 0, 1, 0, 0)" xlink:href="#linear-gradient"/><clipPath id="clip-path-4"><path class="cls-1" d="M1208.07,375.57H899.32S864,377.43,864,354.64s31.9-19,31.9-19L973,337s16.67,1.65,16.67-12.44c0-12.61-18.41-11.35-28.67-11.35S816.08,312,816.08,312s-34.18,2.29-34.18-22.78,33-22.78,33-22.78l55.55-1.14S892,268.07,892,258c0-8.88-18.09-6.84-19.8-7.41s-26.21,0-26.21,0-26.2,1.14-25.06-18.23,13.67-20.51,25.06-21.08,119.06-1.71,119.06-1.71,25.63,0,26.77,22.79-29.05,19.94-29.05,19.94L948,253.4s-6.52,1.68-6.27,6.27c.3,5.41,5.32,5.7,13.3,6.27s225.16,0,225.16,0,22.79,6.84,22.79,29.05-18.8,22.79-29.05,23.36-60.89,0-60.89,0-18.29-3.49-18.29,8.47,25.62,6.76,25.62,6.76h92.3S1232,335.2,1232,356.28,1212.63,375.57,1208.07,375.57Z"/></clipPath><linearGradient id="linear-gradient-3" x1="649.02" y1="349.66" x2="649.02" y2="633.34" gradientUnits="userSpaceOnUse"><stop offset="0" stop-color="#ffe400"/><stop offset="0.49" stop-color="#ffd600"/><stop offset="1" stop-color="#ffcd00"/></linearGradient><linearGradient id="linear-gradient-4" x1="686" y1="685.19" x2="686" y2="503.59" gradientUnits="userSpaceOnUse"><stop offset="0" stop-color="#ffe400"/><stop offset="0.07" stop-color="#ffe510"/><stop offset="0.29" stop-color="#ffe741"/><stop offset="0.5" stop-color="#ffe967"/><stop offset="0.7" stop-color="#ffea82"/><stop offset="0.87" stop-color="#ffeb93"/><stop offset="1" stop-color="#ffeb99"/></linearGradient><clipPath id="clip-path-5"><path class="cls-1" d="M407.08,457.57H59.73S20,459.43,20,436.64s35.89-19,35.89-19L127.67,419s29.48,1.23,25.63-12.44-14.1-11.35-25.63-11.35S94.34,394,94.34,394s-38.45,2.29-38.45-22.78,37.17-22.78,37.17-22.78l161.5-1.14s20.51,4.56,19.87-7.4-16-6.84-17.94-7.4-29.48,0-29.48,0-29.48,1.14-28.2-18.23,15.38-20.51,28.2-21.08,133.94-1.71,133.94-1.71,28.84,0,30.12,22.79-32.68,19.94-32.68,19.94l-16.66,1.14s-9.61,2.28-7,6.27-.64,5.7,8.33,6.27,32.68,0,32.68,0,25.63,6.84,25.63,29.05-21.15,22.79-32.68,23.36-75,0-75,0S273,396.84,273,408.81c0,6.83,21.93,6.76,21.93,6.76H412.21S434,417.2,434,438.28,412.21,457.57,407.08,457.57Z"/></clipPath><linearGradient id="linear-gradient-5" x1="1117.46" y1="36.87" x2="1266.07" y2="36.87" gradientTransform="matrix(1, 0, 0, 1, 0, 0)" xlink:href="#linear-gradient"/></defs><title>bg</title><rect class="cls-2" x="-31" y="-21.43" width="1342" height="805"/><g class="cls-3"><path class="cls-4" d="M109.82,19.88c3.43,5.3,28.59,17.85,15.44,29-4.53,3.85-15.06-.34-17.37,5.44-1.77,4.41,5.83,9.08,8.63,12.35,6.61,7.74,20.49,20.46,17.77,31.88-2.53,10.64-15.22,7.93-23.65,8.79,3.25,7.23,12.85,23.75,3.73,30.63-5.16,3.89-16.18,2-21-1.62-3.72-2.79-6.21-7.15-9.79-10,1,14.28.59,40.79-19,41.95-21.72,1.29-17.92-26.66-15.1-39.91-.93,4.37-11.86,5.84-15.15,5.81C28.41,134.17,22,132,18.41,127c-9.77-13.69,5.46-26.92,14.05-35.79-7.09,1.51-22.09-2.27-24.76-10.28-6.4-19.22,17.63-32,30.84-38C28.54,44.4,25,35.9,29.7,28c5.69-9.66,18-15.12,28.79-17.15C64,9.8,69.58,8.42,75.1,9c5.19.53,11.58,1.29,16.53-.14,5.2-1.51,10.26-8.71,16.53-14.29,2.71.58,6.63,3.26,9.4,4.33-5,5.95-6.75,12.33-9.64,19.31a26.52,26.52,0,0,0,6.8,5.62"/><path class="cls-5" d="M94.34,17l-.08.15C93.79,17.26,93.59,17.41,94.34,17Z"/><path class="cls-5" d="M34.55,107.78l1.15-1.45a19.88,19.88,0,0,1,1.55-1.84l2-2.09a28.3,28.3,0,0,1,2.34-2.19A29.92,29.92,0,0,1,44.2,98c.95-.69,1.9-1.42,2.89-2.12l3-1.89.76-.47.77-.41,1.52-.8c1-.52,2-1.05,2.91-1.46l2.67-1.22c.84-.4,1.57-.67,2.23-.95l1.71-.7,1.49-.61.48,1.5c2.54-8.76,5.5-17.32,8.54-25.3l-.81-.05c-.3,0-.67,0-1.08,0-.8,0-1.71,0-2.72,0s-2.1.11-3.27.19-2.39.23-3.66.42-2.58.38-3.9.65-2.65.58-4,.89c-.67.16-1.32.37-2,.55s-1.32.36-2,.59c-1.28.44-2.55.85-3.73,1.37-.59.25-1.19.48-1.76.73l-1.64.8a32.75,32.75,0,0,0-2.93,1.63,24.77,24.77,0,0,0-2.36,1.59c-.34.25-.67.47-1,.7l-.76.67-1.44,1.28,1.26-1.46.67-.78c.26-.27.56-.54.87-.83a25.68,25.68,0,0,1,2.17-1.93A33.85,33.85,0,0,1,42,68.48l1.57-1.05c.54-.34,1.12-.66,1.7-1,1.15-.7,2.4-1.3,3.65-1.94.63-.33,1.29-.59,1.94-.89s1.31-.59,2-.85c1.34-.51,2.67-1.06,4-1.48s2.67-.86,4-1.24,2.58-.67,3.79-1,2.37-.52,3.46-.68,2.09-.33,3-.43,1.79-.15,2.48-.2c.37,0,.64,0,.87,0h1.08C79,48.87,82.56,40.92,85.61,34.44h-.23l-1,0-1.16.09c-.82,0-1.69.16-2.62.28s-1.91.3-2.92.49-2.05.44-3.09.74-2.09.64-3.15,1-2.08.78-3.06,1.25-2,1-2.88,1.44c-.46.25-.89.53-1.33.79s-.86.52-1.25.8A27.18,27.18,0,0,0,60.71,43l-.94.77-.8.75a15.2,15.2,0,0,0-1.27,1.27l-1.06,1.17.85-1.33a16,16,0,0,1,1.06-1.48l.68-.9.82-.94c.56-.67,1.24-1.33,2-2,.35-.36.75-.69,1.14-1s.8-.71,1.24-1.05c.87-.67,1.77-1.38,2.75-2s2-1.25,3-1.86,2.09-1.13,3.16-1.6,2.13-.93,3.17-1.35,2.07-.76,3.06-1.05,1.93-.58,2.81-.78l1.27-.31L84.81,29c.75-.14,1.41-.27,1.88-.33l1.56-.24,0,.46c.7-1.44,1.36-2.76,2-4l.39-1.82.45.15c1.73-3.41,2.88-5.54,3.18-6.08,1-.25,3.12-.34.31,5.16l-1,1.95c.54.3,1.09.63,1.67,1s1.25.89,1.84,1.43,1.23,1.1,1.84,1.71,1.2,1.27,1.78,1.94,1.15,1.37,1.67,2.09,1,1.44,1.54,2.16.94,1.45,1.37,2.16.83,1.39,1.17,2.07.68,1.29,1,1.89.53,1.14.74,1.63.39.91.52,1.27l.42,1.12-.65-1c-.2-.32-.47-.69-.77-1.11s-.65-.9-1.05-1.4-.83-1-1.32-1.6-1-1.12-1.54-1.7-1.13-1.15-1.73-1.73-1.22-1.14-1.87-1.67S98.89,33.46,98.25,33s-1.3-.94-1.94-1.35a21.29,21.29,0,0,0-1.86-1.08c-.59-.34-1.16-.55-1.68-.79s-1-.35-1.38-.46l-.25,0c-2.43,5.14-4.7,10.35-6.8,15.55l.56.28c.63.35,1.45.75,2.24,1.27s1.71,1.12,2.65,1.81,1.9,1.51,2.88,2.41a40.84,40.84,0,0,1,2.89,3c1,1.06,1.85,2.22,2.74,3.41s1.7,2.45,2.45,3.74a49.45,49.45,0,0,1,6,15.07,22.38,22.38,0,0,1,.52,5.28,9.26,9.26,0,0,1-.16,1.47L107,83l0-.52a9,9,0,0,0,0-1.46,21.87,21.87,0,0,0-1.17-5c-.34-1-.77-2.1-1.27-3.22s-1.08-2.28-1.71-3.45a50.34,50.34,0,0,0-4.59-6.93c-.86-1.11-1.8-2.16-2.73-3.17s-1.91-1.93-2.89-2.77a36,36,0,0,0-2.91-2.29c-1-.67-1.89-1.25-2.76-1.75s-1.69-.91-2.43-1.23-1.35-.55-1.85-.76l-.49-.17c-2.67,7-5.05,13.85-7.17,20.52a8.78,8.78,0,0,1,.93.44,18.81,18.81,0,0,1,4.88,4.08,47.39,47.39,0,0,1,4.82,6.53c.77,1.24,1.53,2.55,2.23,3.92.35.69.69,1.39,1,2.13.16.37.31.75.46,1.15l.37,1.09a95.14,95.14,0,0,1,4.06,16.22,28.39,28.39,0,0,1,.29,5.5,13.63,13.63,0,0,1-.18,1.53l-.11.53,0-.54a13.55,13.55,0,0,0,0-1.52,28,28,0,0,0-.93-5.32A93.85,93.85,0,0,0,87,91.24l-.48-1c-.15-.29-.32-.59-.5-.89-.36-.6-.75-1.2-1.15-1.78-.81-1.17-1.67-2.3-2.53-3.35a42.67,42.67,0,0,0-5.07-5.28,13.35,13.35,0,0,0-3.79-2.46l-.19-.06a426.49,426.49,0,0,0-13,56c-2.11,6-3.42,5.91-3.41,3.1.05-13.26,2.64-27.69,6.44-41.77l-.61.14c-.69.17-1.5.33-2.29.56l-2.64.72c-.95.23-1.91.57-2.92.91l-1.54.52-.79.26-.77.32-3.14,1.3c-1,.5-2,1-3,1.54a27.89,27.89,0,0,0-2.84,1.68,27.22,27.22,0,0,0-2.58,1.73l-2.22,1.7a19.37,19.37,0,0,0-1.8,1.54L34.75,108,33.56,109Z"/><path class="cls-6" d="M129.78,10.56c.12,5.46-11.73,26.66,3.1,28.24,5.11.55,10.58-7.57,15-4.57,3.41,2.29.25,9.32-.15,13-1,8.74-4.67,24.57,2.82,31.41,7,6.37,14.72-1.74,21.16-5.23C173,80.16,174.15,96.63,184,97.1c5.57.27,12.52-6.45,14.21-11.37,1.3-3.8,1-8.12,2.1-11.93,6.26,10.66,19.42,29.4,34,20.7,16.13-9.65-.18-27.75-8.64-35.84,2.79,2.66,11.31-1.6,13.64-3.22,4.19-2.91,7.74-7.59,7.86-12.88.31-14.53-17-16.56-27.45-18.71,5.8-2.37,14.66-12.37,12.67-19.39-4.79-16.84-28.15-14.26-40.5-12.1,7.84-3.85,6.2-11.61-1-15-8.77-4.13-20.24-2-28.9,1.76-4.48,2-9.11,3.66-12.77,6.75-3.45,2.91-7.64,6.56-11.87,7.94-4.45,1.45-11.56-1.22-18.75-2.16C117-6.6,115.5-2.78,114-.67c6.44,1.83,10.82,5.52,16.27,9.1a22.91,22.91,0,0,1-2.11,7.32"/><path class="cls-5" d="M139.55,1,139.43,1C140.16.89,139.95.88,139.55,1Z"/><path class="cls-5" d="M165.55,20.9s0,0,0,.05a.39.39,0,0,1-.14.15v0A.63.63,0,0,1,165.55,20.9Z"/><path class="cls-5" d="M142.11,26.95c-.09-.32-.17-.71-.27-1.16s-.2-1-.29-1.52c-.21-1.12-.35-2.44-.47-3.87-.05-.72-.08-1.46-.11-2.21s0-1.53,0-2.31.08-1.56.14-2.33.17-1.54.3-2.28.27-1.47.46-2.16a19.91,19.91,0,0,1,.61-2c.22-.57.44-1.07.68-1.56l-1.33-.73c-4.69-2.56-3.11-3.53-2.29-3.83.45.23,2.18,1.12,4.87,2.6l.31-.42,1.46,1.39,3.33,1.88-.41-.7,1.24-.58c.37-.18.91-.41,1.53-.67l1-.41,1.07-.39c.74-.28,1.56-.53,2.42-.79s1.78-.48,2.73-.71,1.94-.41,3-.55,2-.25,3.06-.36,2.06-.13,3.07-.1,2,.07,3,.13,1.87.2,2.73.37a24.47,24.47,0,0,1,2.39.54l1,.28.92.32a13.91,13.91,0,0,1,1.47.56l1.25.55-1.33-.3a13.36,13.36,0,0,0-1.53-.27l-.94-.14-1-.08c-.73-.07-1.52-.07-2.35-.07s-1.71.08-2.6.15-1.82.21-2.75.41-1.86.41-2.78.63-1.83.53-2.7.87-1.73.67-2.54,1-1.58.72-2.29,1.1-1.38.73-2,1.1l-.86.51-.71.47c4.83,2.86,10.52,6.37,16.61,10.42,1-.5,2.37-1.25,4.11-2.08.85-.43,1.83-.84,2.84-1.3s2.12-.88,3.28-1.25,2.36-.74,3.58-1.08c.62-.16,1.25-.28,1.87-.42l1-.21.92-.16c.59-.11,1.3-.18,1.94-.27s1.28-.12,1.92-.13a35,35,0,0,1,3.7,0,59.49,59.49,0,0,1,6.39.78l6.12,1.09-6.2-.17a57.85,57.85,0,0,0-6.28.17,32.08,32.08,0,0,0-3.44.48c-.58.1-1.15.25-1.73.38s-1.08.29-1.69.5l-.88.29-.8.32c-.56.22-1.11.43-1.65.66-1.07.49-2.12,1-3.09,1.5s-1.9,1.09-2.77,1.6-1.67,1.07-2.41,1.61c-.57.39-1.09.76-1.57,1.11,5.22,3.61,10.63,7.56,15.95,11.8l.09,0,1.09-.49a25.67,25.67,0,0,1,2.6-1.06l1.47-.52c.51-.17,1.06-.29,1.6-.45a34.57,34.57,0,0,1,3.5-.76c.6-.13,1.24-.16,1.87-.24a18.57,18.57,0,0,1,1.91-.16l1.94-.07,2,.08a19.11,19.11,0,0,1,1.94.18,17.82,17.82,0,0,1,1.91.28l1.85.38,1.77.51a15.24,15.24,0,0,1,1.67.59c.54.22,1.08.39,1.56.64a24.91,24.91,0,0,1,2.72,1.45l1.16.72c.36.25.67.51,1,.73A13.94,13.94,0,0,1,227.28,38l1.25,1.17-1.41-1a13.82,13.82,0,0,0-1.68-1c-.33-.18-.67-.38-1-.56l-1.21-.52a24.71,24.71,0,0,0-2.78-1c-.49-.17-1-.24-1.56-.37a13.48,13.48,0,0,0-1.63-.31l-1.7-.22-1.75-.08a16.18,16.18,0,0,0-1.77,0,16.76,16.76,0,0,0-1.77.11l-1.76.2-1.72.33a16.05,16.05,0,0,0-1.67.41c-.54.16-1.09.27-1.6.46a30.37,30.37,0,0,0-2.94,1.13c-.46.21-.9.39-1.32.6l-1.19.64a12.07,12.07,0,0,0-1.22.7c10.39,8.69,20.12,18.38,27.09,28.53,1.38,2,.48,2.7-3.94-.55a336.79,336.79,0,0,0-26.67-25.51l0,0-.06-.1c-.53-.85-1.66-1.33-2.48-2-.07.3-.18.65-.26,1-.18.7-.29,1.51-.44,2.34s-.25,1.74-.31,2.68l-.11,1.43c0,.49,0,1-.06,1.48-.06,1,0,2,0,3s0,2,.13,3,.14,2,.24,3,.22,1.88.34,2.77.25,1.71.41,2.47.27,1.47.42,2.08.25,1.16.38,1.6l.38,1.38-.62-1.3c-.21-.41-.41-.93-.67-1.51s-.52-1.26-.81-2-.56-1.54-.86-2.4-.58-1.77-.85-2.72-.55-1.94-.79-3-.47-2.05-.7-3.1-.41-2.1-.54-3.15l-.22-1.56c-.06-.52-.11-1-.17-1.53-.11-1-.14-2-.21-2.94s-.06-1.84,0-2.68,0-1.59.15-2.34q.07-.55.12-1l.06-.45.06-.35.05-.28c-3.92-3.21-8.08-6.5-12.46-9.77l-.53.39-.92-1.47Q168.3,21.6,164.52,19l.9,2.11,0,.06.05,0,0,.05-.1,0a3.22,3.22,0,0,0-.22.55,11.22,11.22,0,0,0-.35,2,34.88,34.88,0,0,0,.06,5.84c.18,2.2.49,4.57.88,6.94a114.49,114.49,0,0,0,2.93,12.94c.51,1.74,1,3.17,1.4,4.15a9.29,9.29,0,0,0,.73,1.49,9.33,9.33,0,0,1-1-1.38c-.56-.92-1.28-2.27-2.06-3.93a116.18,116.18,0,0,1-5-12.54c-.78-2.34-1.49-4.72-2-7a39.81,39.81,0,0,1-1.09-6.53,16.5,16.5,0,0,1,.05-3,8.12,8.12,0,0,1,.81-2.77,5.66,5.66,0,0,1,.82-1.18q-4.44-3-9.06-5.85l-.1.07-.13-.22q-2-1.24-4.05-2.44l-.18.16c-.21.24-.49.58-.76.94s-.57.82-.83,1.34a18,18,0,0,0-.82,1.64c-.27.59-.52,1.23-.76,1.88s-.47,1.34-.66,2-.38,1.39-.56,2.09-.31,1.39-.43,2.06c-.24,1.35-.42,2.63-.5,3.73-.06.55-.08,1.06-.1,1.51s0,.85,0,1.17c0,.65,0,1,0,1Z"/></g><g class="cls-7"><line class="cls-8" x1="655" y1="1.07" x2="1200" y2="1.07"/><line class="cls-8" x1="655" y1="5.07" x2="1200" y2="5.07"/><line class="cls-8" x1="655" y1="9.07" x2="1200" y2="9.07"/><line class="cls-8" x1="655" y1="13.07" x2="1200" y2="13.07"/><line class="cls-8" x1="655" y1="17.07" x2="1200" y2="17.07"/><line class="cls-8" x1="655" y1="21.07" x2="1200" y2="21.07"/><line class="cls-8" x1="655" y1="25.07" x2="1200" y2="25.07"/><line class="cls-8" x1="655" y1="29.07" x2="1200" y2="29.07"/><line class="cls-8" x1="655" y1="33.07" x2="1200" y2="33.07"/><line class="cls-8" x1="655" y1="37.07" x2="1200" y2="37.07"/><line class="cls-8" x1="655" y1="41.07" x2="1200" y2="41.07"/><line class="cls-8" x1="655" y1="45.07" x2="1200" y2="45.07"/><line class="cls-8" x1="655" y1="49.07" x2="1200" y2="49.07"/><line class="cls-8" x1="655" y1="53.07" x2="1200" y2="53.07"/><line class="cls-8" x1="655" y1="57.07" x2="1200" y2="57.07"/><line class="cls-8" x1="655" y1="61.07" x2="1200" y2="61.07"/><line class="cls-8" x1="655" y1="65.07" x2="1200" y2="65.07"/><line class="cls-8" x1="655" y1="69.07" x2="1200" y2="69.07"/><line class="cls-8" x1="655" y1="73.07" x2="1200" y2="73.07"/><line class="cls-8" x1="655" y1="77.07" x2="1200" y2="77.07"/><line class="cls-8" x1="655" y1="81.07" x2="1200" y2="81.07"/><line class="cls-8" x1="655" y1="85.07" x2="1200" y2="85.07"/><line class="cls-8" x1="655" y1="89.07" x2="1200" y2="89.07"/><line class="cls-8" x1="655" y1="93.07" x2="1200" y2="93.07"/><line class="cls-8" x1="655" y1="97.07" x2="1200" y2="97.07"/><line class="cls-8" x1="655" y1="101.07" x2="1200" y2="101.07"/><line class="cls-8" x1="655" y1="105.07" x2="1200" y2="105.07"/><line class="cls-8" x1="655" y1="109.07" x2="1200" y2="109.07"/><line class="cls-8" x1="655" y1="113.07" x2="1200" y2="113.07"/><line class="cls-8" x1="655" y1="117.07" x2="1200" y2="117.07"/><line class="cls-8" x1="655" y1="121.07" x2="1200" y2="121.07"/><line class="cls-8" x1="655" y1="125.07" x2="1200" y2="125.07"/><line class="cls-8" x1="655" y1="129.07" x2="1200" y2="129.07"/><line class="cls-8" x1="655" y1="133.07" x2="1200" y2="133.07"/><line class="cls-8" x1="655" y1="137.07" x2="1200" y2="137.07"/><line class="cls-8" x1="655" y1="141.07" x2="1200" y2="141.07"/><line class="cls-8" x1="655" y1="145.07" x2="1200" y2="145.07"/><line class="cls-8" x1="655" y1="149.07" x2="1200" y2="149.07"/><line class="cls-8" x1="655" y1="153.07" x2="1200" y2="153.07"/><line class="cls-8" x1="655" y1="157.07" x2="1200" y2="157.07"/><line class="cls-8" x1="655" y1="161.07" x2="1200" y2="161.07"/><line class="cls-8" x1="655" y1="165.07" x2="1200" y2="165.07"/><line class="cls-8" x1="655" y1="169.07" x2="1200" y2="169.07"/><line class="cls-8" x1="655" y1="173.07" x2="1200" y2="173.07"/><line class="cls-8" x1="655" y1="177.07" x2="1200" y2="177.07"/></g><g class="cls-9"><line class="cls-8" x1="600" y1="228.07" x2="130" y2="228.07"/><line class="cls-8" x1="600" y1="224.07" x2="130" y2="224.07"/><line class="cls-8" x1="600" y1="220.07" x2="130" y2="220.07"/><line class="cls-8" x1="600" y1="216.07" x2="130" y2="216.07"/><line class="cls-8" x1="600" y1="212.07" x2="130" y2="212.07"/><line class="cls-8" x1="600" y1="208.07" x2="130" y2="208.07"/><line class="cls-8" x1="600" y1="204.07" x2="130" y2="204.07"/><line class="cls-8" x1="600" y1="200.07" x2="130" y2="200.07"/><line class="cls-8" x1="600" y1="196.07" x2="130" y2="196.07"/><line class="cls-8" x1="600" y1="192.07" x2="130" y2="192.07"/><line class="cls-8" x1="600" y1="188.07" x2="130" y2="188.07"/><line class="cls-8" x1="600" y1="184.07" x2="130" y2="184.07"/><line class="cls-8" x1="600" y1="180.07" x2="130" y2="180.07"/><line class="cls-8" x1="600" y1="176.07" x2="130" y2="176.07"/><line class="cls-8" x1="600" y1="172.07" x2="130" y2="172.07"/><line class="cls-8" x1="600" y1="168.07" x2="130" y2="168.07"/><line class="cls-8" x1="600" y1="164.07" x2="130" y2="164.07"/><line class="cls-8" x1="600" y1="160.07" x2="130" y2="160.07"/><line class="cls-8" x1="600" y1="156.07" x2="130" y2="156.07"/><line class="cls-8" x1="600" y1="152.07" x2="130" y2="152.07"/><line class="cls-8" x1="600" y1="148.07" x2="130" y2="148.07"/><line class="cls-8" x1="600" y1="144.07" x2="130" y2="144.07"/><line class="cls-8" x1="600" y1="140.07" x2="130" y2="140.07"/><line class="cls-8" x1="600" y1="136.07" x2="130" y2="136.07"/><line class="cls-8" x1="600" y1="132.07" x2="130" y2="132.07"/><line class="cls-8" x1="600" y1="128.07" x2="130" y2="128.07"/><line class="cls-8" x1="600" y1="124.07" x2="130" y2="124.07"/><line class="cls-8" x1="600" y1="120.07" x2="130" y2="120.07"/><line class="cls-8" x1="600" y1="116.07" x2="130" y2="116.07"/><line class="cls-8" x1="600" y1="112.07" x2="130" y2="112.07"/><line class="cls-8" x1="600" y1="108.07" x2="130" y2="108.07"/><line class="cls-8" x1="600" y1="104.07" x2="130" y2="104.07"/><line class="cls-8" x1="600" y1="100.07" x2="130" y2="100.07"/><line class="cls-8" x1="600" y1="96.07" x2="130" y2="96.07"/><line class="cls-8" x1="600" y1="92.07" x2="130" y2="92.07"/><line class="cls-8" x1="600" y1="88.07" x2="130" y2="88.07"/><line class="cls-8" x1="600" y1="84.07" x2="130" y2="84.07"/><line class="cls-8" x1="600" y1="80.07" x2="130" y2="80.07"/><line class="cls-8" x1="600" y1="76.07" x2="130" y2="76.07"/><line class="cls-8" x1="600" y1="72.07" x2="130" y2="72.07"/><line class="cls-8" x1="600" y1="68.07" x2="130" y2="68.07"/><line class="cls-8" x1="600" y1="64.07" x2="130" y2="64.07"/><line class="cls-8" x1="600" y1="60.07" x2="130" y2="60.07"/><line class="cls-8" x1="600" y1="56.07" x2="130" y2="56.07"/><line class="cls-8" x1="600" y1="52.07" x2="130" y2="52.07"/><line class="cls-8" x1="600" y1="48.07" x2="130" y2="48.07"/><line class="cls-8" x1="600" y1="44.07" x2="130" y2="44.07"/><line class="cls-8" x1="600" y1="40.07" x2="130" y2="40.07"/><line class="cls-8" x1="600" y1="36.07" x2="130" y2="36.07"/><line class="cls-8" x1="600" y1="32.07" x2="130" y2="32.07"/><line class="cls-8" x1="600" y1="28.07" x2="130" y2="28.07"/><line class="cls-8" x1="600" y1="24.07" x2="130" y2="24.07"/><line class="cls-8" x1="600" y1="20.07" x2="130" y2="20.07"/><line class="cls-8" x1="600" y1="16.07" x2="130" y2="16.07"/><line class="cls-8" x1="600" y1="12.07" x2="130" y2="12.07"/><line class="cls-8" x1="600" y1="8.07" x2="130" y2="8.07"/><line class="cls-8" x1="600" y1="4.07" x2="130" y2="4.07"/></g><g class="cls-10"><path class="cls-11" d="M-390.43,315.57c-.32-3-.51-7-.51-10.65a117.08,117.08,0,0,1,117.1-117.08,117,117,0,0,1,98.19,53.34,72.41,72.41,0,0,1,41.88-13.27,73,73,0,0,1,12.88,1.16A117.1,117.1,0,0,1-15.45,163a117.12,117.12,0,0,1,114.4,92.11,55.24,55.24,0,0,1,54.86-7.44,72.75,72.75,0,0,1,127.94-19,55.26,55.26,0,0,1,57.61,6.16A117.09,117.09,0,0,1,554.62,250.2,75.6,75.6,0,0,1,608,246.81a108.57,108.57,0,0,1,180.84-31.44,91.05,91.05,0,0,1,162.87,7.94A75.5,75.5,0,0,1,1035.61,253a102.64,102.64,0,0,1,31.12-4.81c.46,0,.91,0,1.37,0a75.49,75.49,0,0,1,143.37-10.34,75.38,75.38,0,0,1,23.37-3.71c1.78,0,3.53.08,5.28.2A102.74,102.74,0,0,1,1430,221.85c1.88-.1,3.78-.16,5.69-.16a102.56,102.56,0,0,1,82.14,41,102.56,102.56,0,0,1,197.76,38.34c0,15.21-2.54,29.64-9.54,42.63V658.57H-420v-343Z"/><path class="cls-12" d="M1366,266.57c-10-11.57-197.22-108.31-419-55-137.89,33.14-172.54,42.78-257,61-102,22-236.09,2.88-328.14-12.1C316.14,253,259,240.28,181,230.36c-88.86-11.3-222.72,18.48-265,37.89-54,24.79-88.32,44.88-121,60.19l69,235.13H1372Z"/><g class="cls-13"><line class="cls-14" x1="774" y1="210.07" x2="1249" y2="210.07"/><line class="cls-14" x1="774" y1="214.07" x2="1249" y2="214.07"/><line class="cls-14" x1="774" y1="218.07" x2="1249" y2="218.07"/><line class="cls-14" x1="774" y1="222.07" x2="1249" y2="222.07"/><line class="cls-14" x1="774" y1="226.07" x2="1249" y2="226.07"/><line class="cls-14" x1="774" y1="230.07" x2="1249" y2="230.07"/><line class="cls-14" x1="774" y1="234.07" x2="1249" y2="234.07"/><line class="cls-14" x1="774" y1="238.07" x2="1249" y2="238.07"/><line class="cls-14" x1="774" y1="242.07" x2="1249" y2="242.07"/><line class="cls-14" x1="774" y1="246.07" x2="1249" y2="246.07"/><line class="cls-14" x1="774" y1="250.07" x2="1249" y2="250.07"/><line class="cls-14" x1="774" y1="254.07" x2="1249" y2="254.07"/><line class="cls-14" x1="774" y1="258.07" x2="1249" y2="258.07"/><line class="cls-14" x1="774" y1="262.07" x2="1249" y2="262.07"/><line class="cls-14" x1="774" y1="266.07" x2="1249" y2="266.07"/><line class="cls-14" x1="774" y1="270.07" x2="1249" y2="270.07"/><line class="cls-14" x1="774" y1="274.07" x2="1249" y2="274.07"/><line class="cls-14" x1="774" y1="278.07" x2="1249" y2="278.07"/><line class="cls-14" x1="774" y1="282.07" x2="1249" y2="282.07"/><line class="cls-14" x1="774" y1="286.07" x2="1249" y2="286.07"/><line class="cls-14" x1="774" y1="290.07" x2="1249" y2="290.07"/><line class="cls-14" x1="774" y1="294.07" x2="1249" y2="294.07"/><line class="cls-14" x1="774" y1="298.07" x2="1249" y2="298.07"/><line class="cls-14" x1="774" y1="302.07" x2="1249" y2="302.07"/><line class="cls-14" x1="774" y1="306.07" x2="1249" y2="306.07"/><line class="cls-14" x1="774" y1="310.07" x2="1249" y2="310.07"/><line class="cls-14" x1="774" y1="314.07" x2="1249" y2="314.07"/><line class="cls-14" x1="774" y1="318.07" x2="1249" y2="318.07"/><line class="cls-14" x1="774" y1="322.07" x2="1249" y2="322.07"/><line class="cls-14" x1="774" y1="326.07" x2="1249" y2="326.07"/><line class="cls-14" x1="774" y1="330.07" x2="1249" y2="330.07"/><line class="cls-14" x1="774" y1="334.07" x2="1249" y2="334.07"/><line class="cls-14" x1="774" y1="338.07" x2="1249" y2="338.07"/><line class="cls-14" x1="774" y1="342.07" x2="1249" y2="342.07"/><line class="cls-14" x1="774" y1="346.07" x2="1249" y2="346.07"/><line class="cls-14" x1="774" y1="350.07" x2="1249" y2="350.07"/><line class="cls-14" x1="774" y1="354.07" x2="1249" y2="354.07"/><line class="cls-14" x1="774" y1="358.07" x2="1249" y2="358.07"/><line class="cls-14" x1="774" y1="362.07" x2="1249" y2="362.07"/><line class="cls-14" x1="774" y1="366.07" x2="1249" y2="366.07"/><line class="cls-14" x1="774" y1="370.07" x2="1249" y2="370.07"/><line class="cls-14" x1="774" y1="374.07" x2="1249" y2="374.07"/><line class="cls-14" x1="774" y1="378.07" x2="1249" y2="378.07"/><line class="cls-14" x1="774" y1="382.07" x2="1249" y2="382.07"/><line class="cls-14" x1="774" y1="386.07" x2="1249" y2="386.07"/><line class="cls-14" x1="774" y1="390.07" x2="1249" y2="390.07"/><line class="cls-14" x1="774" y1="394.07" x2="1249" y2="394.07"/><line class="cls-14" x1="774" y1="398.07" x2="1249" y2="398.07"/><line class="cls-14" x1="774" y1="402.07" x2="1249" y2="402.07"/><line class="cls-14" x1="774" y1="406.07" x2="1249" y2="406.07"/><line class="cls-14" x1="774" y1="410.07" x2="1249" y2="410.07"/><line class="cls-14" x1="774" y1="414.07" x2="1249" y2="414.07"/><line class="cls-14" x1="774" y1="418.07" x2="1249" y2="418.07"/><line class="cls-14" x1="774" y1="422.07" x2="1249" y2="422.07"/><line class="cls-14" x1="774" y1="426.07" x2="1249" y2="426.07"/><line class="cls-14" x1="774" y1="430.07" x2="1249" y2="430.07"/><line class="cls-14" x1="774" y1="434.07" x2="1249" y2="434.07"/></g><path class="cls-15" d="M1316.18,414.57c.21-2.26.33-4.55.33-6.87a75.22,75.22,0,0,0-138.31-41A46.62,46.62,0,0,0,1143,359a75.24,75.24,0,0,0-141.23,16.7,35.49,35.49,0,0,0-35.24-4.78,46.74,46.74,0,0,0-82.19-12.2,35.5,35.5,0,0,0-37,4,75.22,75.22,0,0,0-138.3,9.9,48.57,48.57,0,0,0-34.27-2.18,69.75,69.75,0,0,0-116.18-20.2A58.5,58.5,0,0,0,454,355.24,48.5,48.5,0,0,0,400,374.3a65.94,65.94,0,0,0-20-3.09l-.88,0a48.5,48.5,0,0,0-92.11-6.64,48.43,48.43,0,0,0-15-2.38c-1.14,0-2.27.05-3.39.13a66,66,0,0,0-122-8c-1.21-.07-2.43-.11-3.65-.11a65.89,65.89,0,0,0-52.77,26.37A66,66,0,1,0-31,432.59v202H1335v-220Z"/><circle class="cls-16" cx="1228.58" cy="392.63" r="12.42" transform="translate(-12.58 41.81) rotate(-1.94)"/><circle class="cls-16" cx="1236.5" cy="422.74" r="8.97" transform="translate(-13.56 41.97) rotate(-1.93)"/><circle class="cls-16" cx="1197.23" cy="404.74" r="8.97" transform="translate(-13 40.7) rotate(-1.94)"/><circle class="cls-16" cx="1185.77" cy="433.44" r="6.21" transform="translate(-13.97 40.33) rotate(-1.94)"/><circle class="cls-16" cx="1216.31" cy="437.93" r="6.21" transform="translate(-14.14 41.46) rotate(-1.94)"/><path class="cls-16" d="M1227.6,390.48s-.24.24-.66.71-1,1.17-1.76,2.1-1.57,2.07-2.49,3.39-1.87,2.85-3,4.47-2.1,3.43-3.31,5.23-2.37,3.73-3.67,5.64l-4.13,6-4.35,6.23-8.64,12.27c-1.35,2-2.7,3.87-4,5.65-.67.87-1.25,1.77-1.86,2.62L1188,447.2c-1.16,1.52-2.16,3-3.13,4.24s-1.76,2.38-2.46,3.28l-1.62,2.11-.57.77.31.38.72-.6c.46-.4,1.17-.95,2-1.71s1.89-1.66,3-2.77,2.42-2.35,3.78-3.75l2.08-2.22,2.17-2.42c1.47-1.68,3-3.47,4.55-5.35s3.12-3.85,4.68-5.87,3.13-4.1,4.65-6.2,3-4.21,4.46-6.34,2.82-4.21,4.08-6.32a114,114,0,0,0,6-11.89c1.6-3.55,2.83-6.55,3.76-8.61s1.5-3.23,1.5-3.23Z"/><path class="cls-16" d="M1207.69,424.23s0-.1,0-.28a6.55,6.55,0,0,0,0-.75,7.74,7.74,0,0,1-.06-1c0-.34,0-.73,0-1.14s0-.81-.06-1.22,0-.83-.09-1.22a5.25,5.25,0,0,0-.05-.62c0-.2,0-.42-.07-.62-.05-.41-.13-.85-.21-1.28s-.19-.88-.32-1.34a14.25,14.25,0,0,0-.43-1.38,15.76,15.76,0,0,0-1.19-2.64c-.23-.4-.47-.77-.7-1.1s-.48-.61-.67-.85-.39-.21-.5-.33a.11.11,0,0,0-.2,0h-.41a5,5,0,0,0,0,.54c0,.48,0,1.06,0,1.89a38,38,0,0,0,.44,6,15.91,15.91,0,0,0,.42,1.59c.15.54.37,1,.56,1.52a15.07,15.07,0,0,0,.7,1.35,10,10,0,0,0,.75,1.14,7.34,7.34,0,0,0,.74.89,6.66,6.66,0,0,0,.62.62l.56.51Z"/><path class="cls-16" d="M1191.28,447.68s0-.09.11-.24a6.33,6.33,0,0,0,.26-.63c.09-.27.21-.59.3-.94s.16-.74.26-1.11a11.2,11.2,0,0,0,.2-1.17c0-.39.08-.82.07-1.23a5.4,5.4,0,0,0,0-.62c0-.21,0-.41,0-.62a8.45,8.45,0,0,0-.21-1.21,8.65,8.65,0,0,0-.35-1.17c-.15-.38-.29-.76-.47-1.12s-.41-.72-.6-1.06a10.5,10.5,0,0,0-.68-1l-.7-.87c-.22-.26-.46-.5-.65-.7s-.38-.36-.49-.47l-.2-.17h-.41l0,.64a15.47,15.47,0,0,0,0,1.71c0,.35,0,.73.06,1.14s.08.83.13,1.27.09.89.19,1.35l.26,1.39c.26.91.49,1.82.81,2.65.15.41.27.82.43,1.19l.44,1.06c.26.66.57,1.15.74,1.52l.29.57Z"/><path class="cls-16" d="M1211.69,417.51s0,.11.07.3.11.47.24.79a4.63,4.63,0,0,0,.57,1.15c.13.22.3.45.46.67s.35.42.54.65a10.51,10.51,0,0,0,1.37,1.27,12.75,12.75,0,0,0,1.71,1.1c.31.17.63.31,1,.46a6.82,6.82,0,0,0,1,.38,13.94,13.94,0,0,0,2.11.54,15.25,15.25,0,0,0,2.16.19,12.08,12.08,0,0,0,2.11-.14,11.34,11.34,0,0,0,2-.45,11.89,11.89,0,0,0,1.71-.71,10.18,10.18,0,0,0,1.37-.87,7.85,7.85,0,0,0,.95-.87,6.24,6.24,0,0,0,.53-.67c.11-.16.17-.26.17-.26l-.14-.39-.85.22c-.27.07-.61.11-1,.17s-.83.08-1.3.15a23.43,23.43,0,0,1-3.27,0c-.6,0-1.21-.09-1.84-.16s-1.26-.17-1.89-.29-1.26-.21-1.87-.36-1.21-.31-1.79-.46-1.13-.36-1.63-.56-1-.39-1.42-.61-.83-.39-1.16-.59a8.89,8.89,0,0,1-.86-.51l-.74-.5Z"/><path class="cls-16" d="M1193.64,442.91l.28.15c.18.08.45.24.79.35s.74.3,1.2.44,1,.28,1.51.42,1.12.24,1.71.33a19,19,0,0,0,1.91.18c.33,0,.66,0,1,0a9.62,9.62,0,0,0,1,0c.7,0,1.4-.14,2.1-.22s1.41-.28,2.09-.48a13.75,13.75,0,0,0,2-.7,15.35,15.35,0,0,0,1.82-.89,18.64,18.64,0,0,0,1.56-1c.23-.19.46-.35.66-.53s.4-.37.57-.55a13,13,0,0,0,.86-1,7.9,7.9,0,0,0,.51-.7c.11-.17.16-.27.16-.27l-.15-.38-.91.28-1,.32c-.4.13-.86.25-1.36.38l-1.62.42c-.57.14-1.19.25-1.82.38-1.26.28-2.64.47-4,.7-2.73.47-5.48.9-7.54,1.28-1,.17-1.87.41-2.46.53l-.93.21Z"/><path class="cls-17" d="M1405,495.57c-171.3,47.36-243.64-114.67-448.18-84.92-36.73,5.34-96.69,25.86-127.68,44.63-44.33,26.84-99.55,38.41-150.2,34.3-48.73-4-94.66-18.4-141.55-31.94-44.29-12.79-173.1-75.49-363.12,20.13C109.81,510.19,36.49,563.23-35,527.57v232H1407Z"/></g><g class="cls-18"><line class="cls-14" x1="448" y1="470.07" y2="470.07"/><line class="cls-14" x1="448" y1="466.07" y2="466.07"/><line class="cls-14" x1="448" y1="462.07" y2="462.07"/><line class="cls-14" x1="448" y1="458.07" y2="458.07"/><line class="cls-14" x1="448" y1="454.07" y2="454.07"/><line class="cls-14" x1="448" y1="450.07" y2="450.07"/><line class="cls-14" x1="448" y1="446.07" y2="446.07"/><line class="cls-14" x1="448" y1="442.07" y2="442.07"/><line class="cls-14" x1="448" y1="438.07" y2="438.07"/><line class="cls-14" x1="448" y1="434.07" y2="434.07"/><line class="cls-14" x1="448" y1="430.07" y2="430.07"/><line class="cls-14" x1="448" y1="426.07" y2="426.07"/><line class="cls-14" x1="448" y1="422.07" y2="422.07"/><line class="cls-14" x1="448" y1="418.07" y2="418.07"/><line class="cls-14" x1="448" y1="414.07" y2="414.07"/><line class="cls-14" x1="448" y1="410.07" y2="410.07"/><line class="cls-14" x1="448" y1="406.07" y2="406.07"/><line class="cls-14" x1="448" y1="402.07" y2="402.07"/><line class="cls-14" x1="448" y1="398.07" y2="398.07"/><line class="cls-14" x1="448" y1="394.07" y2="394.07"/><line class="cls-14" x1="448" y1="390.07" y2="390.07"/><line class="cls-14" x1="448" y1="386.07" y2="386.07"/><line class="cls-14" x1="448" y1="382.07" y2="382.07"/><line class="cls-14" x1="448" y1="378.07" y2="378.07"/><line class="cls-14" x1="448" y1="374.07" y2="374.07"/><line class="cls-14" x1="448" y1="370.07" y2="370.07"/><line class="cls-14" x1="448" y1="366.07" y2="366.07"/><line class="cls-14" x1="448" y1="362.07" y2="362.07"/><line class="cls-14" x1="448" y1="358.07" y2="358.07"/><line class="cls-14" x1="448" y1="354.07" y2="354.07"/><line class="cls-14" x1="448" y1="350.07" y2="350.07"/><line class="cls-14" x1="448" y1="346.07" y2="346.07"/><line class="cls-14" x1="448" y1="342.07" y2="342.07"/><line class="cls-14" x1="448" y1="338.07" y2="338.07"/><line class="cls-14" x1="448" y1="334.07" y2="334.07"/><line class="cls-14" x1="448" y1="330.07" y2="330.07"/><line class="cls-14" x1="448" y1="326.07" y2="326.07"/><line class="cls-14" x1="448" y1="322.07" y2="322.07"/><line class="cls-14" x1="448" y1="318.07" y2="318.07"/><line class="cls-14" x1="448" y1="314.07" y2="314.07"/><line class="cls-14" x1="448" y1="310.07" y2="310.07"/><line class="cls-14" x1="448" y1="306.07" y2="306.07"/><line class="cls-14" x1="448" y1="302.07" y2="302.07"/><line class="cls-14" x1="448" y1="298.07" y2="298.07"/><line class="cls-14" x1="448" y1="294.07" y2="294.07"/><line class="cls-14" x1="448" y1="290.07" y2="290.07"/><line class="cls-14" x1="448" y1="286.07" y2="286.07"/><line class="cls-14" x1="448" y1="282.07" y2="282.07"/><line class="cls-14" x1="448" y1="278.07" y2="278.07"/><line class="cls-14" x1="448" y1="274.07" y2="274.07"/><line class="cls-14" x1="448" y1="270.07" y2="270.07"/><line class="cls-14" x1="448" y1="266.07" y2="266.07"/><line class="cls-14" x1="448" y1="262.07" y2="262.07"/><line class="cls-14" x1="448" y1="258.07" y2="258.07"/><line class="cls-14" x1="448" y1="254.07" y2="254.07"/><line class="cls-14" x1="448" y1="250.07" y2="250.07"/><line class="cls-14" x1="448" y1="246.07" y2="246.07"/></g><circle class="cls-19" cx="294.09" cy="577.24" r="13.23" transform="translate(-39.94 22.15) rotate(-4.04)"/><circle class="cls-19" cx="303.7" cy="608.99" r="9.56" transform="translate(-42.21 22.95) rotate(-4.05)"/><circle class="cls-19" cx="261.19" cy="591.36" r="9.56" transform="translate(-41.04 19.89) rotate(-4.04)"/><circle class="cls-19" cx="250.11" cy="622.35" r="6.62" transform="translate(-43.2 19.15) rotate(-4.04)"/><circle class="cls-19" cx="282.79" cy="625.94" r="6.62" transform="translate(-43.33 21.44) rotate(-4.03)"/><path class="cls-19" d="M293.4,575.18s0,.36-.17,1-.29,1.61-.54,2.8-.55,2.65-.92,4.31-.86,3.51-1.39,5.56-1.29,4.2-2.08,6.52a67.71,67.71,0,0,1-3.06,7.12c-.29.61-.62,1.21-1,1.82s-.68,1.24-1,1.8c-.66,1.15-1.36,2.31-2.1,3.5-1.44,2.38-3,4.69-4.56,7s-3.22,4.58-4.9,6.77c-.85,1.09-1.67,2.18-2.53,3.23l-2.55,3.08c-1.74,2-3.45,3.87-5.09,5.63s-3.34,3.32-4.87,4.77-3,2.68-4.38,3.76-2.57,1.95-3.56,2.68-1.86,1.21-2.4,1.57l-.87.53-.29-.33.73-.67c.46-.45,1.18-1.07,2-1.92s1.9-1.87,3-3.11,2.41-2.64,3.78-4.18l2.1-2.45,2.19-2.67c1.49-1.85,3-3.82,4.58-5.88s3.13-4.23,4.7-6.44,3.13-4.49,4.65-6.79,3-4.62,4.47-6.91,2.86-4.57,4.12-6.81a120.72,120.72,0,0,0,6-12.76l2.14-5.23,1.7-4c1-2.23,1.56-3.47,1.56-3.47Z"/><path class="cls-19" d="M275.29,615.54l-.31,0c-.19,0-.49-.08-.83-.18a5.54,5.54,0,0,1-1.24-.48c-.23-.12-.5-.26-.74-.4s-.48-.32-.74-.5a11.93,11.93,0,0,1-1.51-1.3,14.47,14.47,0,0,1-1.4-1.67,13.68,13.68,0,0,1-1.18-2,18.3,18.3,0,0,1-.92-2.15,19,19,0,0,1-.59-2.23,15.27,15.27,0,0,1-.3-2.21,15.6,15.6,0,0,1,.22-4,12.24,12.24,0,0,1,.86-2.79c.13-.33.29-.59.38-.77s.16-.27.16-.27l.37,0,.11,1c.07.62.21,1.49.38,2.54s.41,2.27.72,3.56c.17.64.33,1.31.54,2s.43,1.34.65,2,.46,1.34.73,2,.54,1.27.83,1.86.6,1.15.9,1.68.6,1,.93,1.43.58.82.86,1.14a9.6,9.6,0,0,0,.72.84l.69.7Z"/><path class="cls-19" d="M256.17,637.47l-.24-.08a6.53,6.53,0,0,1-.62-.25c-.25-.12-.56-.26-.87-.44a5.72,5.72,0,0,1-1-.69,12,12,0,0,1-1-1,9.45,9.45,0,0,1-.91-1.2,7.58,7.58,0,0,1-.76-1.39,14.84,14.84,0,0,1-.56-1.53c-.11-.54-.23-1.07-.29-1.61a4.35,4.35,0,0,1-.06-.8c0-.27,0-.53,0-.79a7.68,7.68,0,0,1,.19-1.51,11.64,11.64,0,0,1,.4-1.35,7.7,7.7,0,0,1,1.08-1.95c.15-.23.33-.72.42-.84a1.47,1.47,0,0,0,.17-.5h.37s0,.56.06,1,.07,1.2.17,1.93c0,.37.09.84.14,1.26s.15.89.23,1.35.16.94.29,1.41l.37,1.43.41,1.41c.12.47.29.92.45,1.35s.29.86.46,1.25l.46,1.1c.57,1.36,1,2.27,1,2.27Z"/><path class="cls-19" d="M280.75,606.75l.24-.13c.15-.07.38-.2.65-.31a14.24,14.24,0,0,1,2.16-.8,17,17,0,0,1,2.85-.55,15.09,15.09,0,0,1,1.54-.1c.52,0,1,0,1.55,0s1,.06,1.53.14,1,.13,1.47.24.94.22,1.38.31.87.25,1.27.37l1.13.38c.35.12.68.26.94.34s.5.19.65.24l.25.1.14.34-.73.28a7.83,7.83,0,0,1-.85.28l-.53.16-.6.12a28.18,28.18,0,0,1-6.21.38,51.09,51.09,0,0,1-6.15-.78c-.83-.15-1.51-.34-2-.45l-.74-.2Z"/><path class="cls-19" d="M266.78,629.1l.15-.21c.1-.12.24-.33.43-.53a8.52,8.52,0,0,1,1.63-1.49,13.28,13.28,0,0,1,1.21-.72,12.91,12.91,0,0,1,1.34-.6,12.61,12.61,0,0,1,1.43-.45,13.32,13.32,0,0,1,1.46-.29,14.12,14.12,0,0,1,1.43-.14c.24,0,.48,0,.71,0a6,6,0,0,1,.68,0c.45,0,.91.08,1.33.13a12.14,12.14,0,0,1,1.22.19l1.1.25c.33.07.65.18.92.25s.5.16.65.21l.24.09.16.33-.64.3-.74.35L281,627l-.53.17-1.2.38c-.43.13-.89.22-1.36.33s-1,.23-1.46.31l-1.51.27c-2,.26-4.08.47-5.58.68l-2.54.34Z"/><circle class="cls-19" cx="1035.64" cy="580.24" r="9.91" transform="translate(263.71 1482.11) rotate(-78.7)"/><circle class="cls-19" cx="1025.49" cy="602.93" r="7.16" transform="translate(233.3 1490.4) rotate(-78.7)"/><circle class="cls-19" cx="1058.76" cy="593.85" r="7.16" transform="translate(269.06 1515.81) rotate(-78.71)"/><circle class="cls-19" cx="1064.06" cy="617.94" r="4.96" transform="translate(249.75 1540.42) rotate(-78.71)"/><circle class="cls-19" cx="1039.43" cy="617.51" r="4.96" transform="translate(230.34 1515.91) rotate(-78.71)"/><path class="cls-19" d="M1036.35,578.78s0,.27,0,.77.06,1.23.14,2.14.16,2,.27,3.29.31,2.69.51,4.26.56,3.25.93,5a51,51,0,0,0,1.6,5.58c.15.48.35,1,.54,1.44s.39,1,.58,1.43c.38.92.79,1.85,1.23,2.8.85,1.91,1.78,3.77,2.73,5.65s2,3.71,3,5.49c.53.89,1,1.78,1.57,2.64l1.61,2.53c1.1,1.64,2.2,3.2,3.25,4.67s2.17,2.78,3.17,4,2,2.28,2.9,3.21,1.73,1.69,2.39,2.33,1.27,1.07,1.64,1.39l.59.47.25-.22-.47-.57c-.31-.37-.78-.9-1.33-1.62s-1.24-1.57-2-2.6-1.54-2.19-2.42-3.47l-1.33-2-1.38-2.19c-.93-1.51-1.89-3.12-2.85-4.8s-1.93-3.44-2.88-5.23-1.9-3.64-2.81-5.49-1.81-3.72-2.67-5.56-1.7-3.67-2.42-5.45a90.18,90.18,0,0,1-3.27-10.05c-.4-1.5-.77-2.87-1.1-4.09l-.88-3.15c-.51-1.75-.83-2.73-.83-2.73Z"/><path class="cls-19" d="M1046,610.49h.23c.15,0,.38,0,.63-.06a4.21,4.21,0,0,0,1-.24c.19-.06.39-.15.59-.23l.6-.3a9,9,0,0,0,1.25-.82,10.67,10.67,0,0,0,1.2-1.11,10.32,10.32,0,0,0,1.06-1.35,13.39,13.39,0,0,0,.89-1.51,14,14,0,0,0,.65-1.6,11.38,11.38,0,0,0,.43-1.61,11.6,11.6,0,0,0,.21-3,9.23,9.23,0,0,0-.37-2.15,6.36,6.36,0,0,0-.21-.61c-.05-.14-.09-.22-.09-.22l-.27-.05-.17.71c-.11.45-.3,1.09-.52,1.86s-.52,1.65-.87,2.58c-.18.46-.37.94-.59,1.42s-.44,1-.67,1.43-.47,1-.73,1.4-.52.89-.79,1.31-.55.8-.83,1.16-.54.69-.83,1-.51.56-.75.77a7.08,7.08,0,0,1-.62.56l-.57.46Z"/><path class="cls-19" d="M1058.13,628.61l.19,0c.11,0,.29-.06.48-.13s.44-.14.69-.25a4.18,4.18,0,0,0,.8-.42,9,9,0,0,0,.85-.63,7.3,7.3,0,0,0,.79-.81,5.79,5.79,0,0,0,.69-1,11,11,0,0,0,.56-1.08,12.1,12.1,0,0,0,.37-1.17,3.21,3.21,0,0,0,.12-.59c0-.2.06-.4.07-.59a5.91,5.91,0,0,0,0-1.14,8.74,8.74,0,0,0-.17-1,5.74,5.74,0,0,0-.62-1.55,5,5,0,0,0-.26-.44l-.11-.17-.27,0-.11.51c-.07.31-.15.78-.29,1.31l-.22.87c-.07.31-.19.62-.29,1s-.2.67-.35,1l-.41,1-.43,1c-.14.34-.3.65-.46,1s-.3.61-.46.88l-.44.77c-.56,1-1,1.59-1,1.59Z"/><path class="cls-19" d="M1042.77,603.44l-.16-.12c-.11-.07-.26-.19-.45-.29a10.64,10.64,0,0,0-1.53-.79,12.54,12.54,0,0,0-2.07-.68,11.06,11.06,0,0,0-1.13-.22c-.38-.07-.77-.09-1.15-.14s-.77,0-1.15,0a11,11,0,0,0-1.11,0c-.35,0-.72.07-1.05.1l-1,.15-.87.17c-.27.05-.53.13-.73.16s-.39.09-.51.12l-.19.05-.13.24.52.28a5.77,5.77,0,0,0,.61.29l.38.16.43.14a21,21,0,0,0,4.58.87,37.84,37.84,0,0,0,4.64,0c.63,0,1.16-.11,1.52-.15l.57-.08Z"/><path class="cls-19" d="M1051,621.38l-.09-.17c-.06-.1-.15-.27-.27-.43a6.31,6.31,0,0,0-1.08-1.26,9.06,9.06,0,0,0-.83-.65,9.67,9.67,0,0,0-.94-.58,9.5,9.5,0,0,0-1-.47,10.16,10.16,0,0,0-1.06-.35,10.45,10.45,0,0,0-1.05-.24c-.17,0-.36-.05-.53-.07s-.33-.05-.5-.06c-.33,0-.68,0-1,0s-.62,0-.92,0l-.84.08c-.25,0-.5.07-.71.1s-.38.07-.5.09l-.19,0-.15.23.45.29.52.33.32.2.38.18.85.4c.31.13.64.25,1,.38s.69.26,1.06.37l1.1.35c1.49.39,3,.74,4.09,1l1.85.5Z"/><path class="cls-20" d="M1188.45,585.25c9.7-5.68,26.28-13.56,21.06-27.95-1.9-5.23-7-8.71-12.19-10.19-2.87-.83-12.82-2.21-14.7,1.4,5.71-10.93,15.86-34.5-3.49-38.68-17.46-3.77-24.26,19.38-26.91,32.13-2.43-3.41-3.55-7.84-6.13-11.19-3.35-4.35-12.55-8.7-18-6.55-9.67,3.8-5.29,20.63-4.21,27.76-7.6-1.31-18.07-6.78-22.88,1.93-5.17,9.35,3.9,23.89,7.8,32.29,1.65,3.56,7.17,9.5,4.55,12.94-3.44,4.5-11.65-1.75-16.56.52-13.37,6.18,2.49,21.65,5.93,28.07a23.61,23.61,0,0,1,1.76,3.11c-4.24,5.41-7.36,10.57-13.16,14.57,2.17,1.61,4.95,4.92,7.18,6.09,6.85-3.36,13.05-8.44,18-8.49,4.69,0,10.11,2.18,14.53,3.91,4.7,1.84,9.89,2,15,2.42,9.91.84,22.07-.92,29.43-8,6-5.78,5-14.08-4.11-15.27,13-2,37.23-7.34,36.32-25.76C1207.26,592.63,1195,585.66,1188.45,585.25Zm-1.17-13.09a9.45,9.45,0,0,1-1,1.13l-.7.69-.82.68a22,22,0,0,1-1.95,1.44,12,12,0,0,1-1.13.69c-.4.22-.79.48-1.22.68a22.6,22.6,0,0,1-2.67,1.18c-.93.38-1.9.64-2.88.94s-2,.55-2.95.79a14.12,14.12,0,0,1-2.93.47,11.25,11.25,0,0,1-2.74-.31c-.43-.09-.84-.22-1.24-.33s-.78-.27-1.13-.43a11.07,11.07,0,0,1-1.91-1,9.12,9.12,0,0,1-1.33-1c-5.1,8.39-10.68,16.4-16.11,23.65l2.75.23a50.65,50.65,0,0,1,6.37.84c1.14.26,2.32.6,3.53.84a18.16,18.16,0,0,0,1.8.28c.67.08,1.21.07,1.84.08s1.22,0,1.83-.07,1.23-.11,1.83-.22a31.74,31.74,0,0,0,3.6-.71c1.17-.3,2.29-.64,3.35-1s2.06-.75,3-1.14,1.74-.76,2.46-1.12,1.35-.69,1.86-1,.9-.51,1.17-.68l.41-.25.4.49-.34.35c-.21.23-.55.55-1,1s-1,.9-1.64,1.42-1.4,1.11-2.25,1.7-1.8,1.2-2.83,1.81c-.51.3-1.06.6-1.61.9s-1.14.58-1.75.85a33.81,33.81,0,0,1-3.83,1.5c-.67.23-1.37.38-2.07.57s-1.43.31-2.16.41-1.51.2-2.18.26l-2.19.16a29.22,29.22,0,0,1-4.18,0,16,16,0,0,1-3.79-.82,21.71,21.71,0,0,1-3.23-1.42,15.88,15.88,0,0,1-3.32-2.39c-5.76,7.52-11.25,14.1-15.7,19.22l1.34-.24,2.1-.34,2.43-.36,2.65-.37c.45-.08.92-.14,1.38-.2s.93-.16,1.4-.22c.95-.11,1.89-.3,2.84-.42s1.89-.3,2.81-.49c.46-.09.93-.14,1.38-.24s.9-.19,1.35-.26.87-.2,1.3-.27.86-.16,1.26-.26c.82-.18,1.62-.34,2.34-.53l1.08-.24c.34-.09.66-.18,1-.25.62-.15,1.19-.27,1.64-.41.93-.24,1.52-.35,1.52-.35a14.71,14.71,0,0,1-.77,1.38,10.31,10.31,0,0,1-1.07,1.44c-.22.27-.47.54-.73.83s-.58.54-.89.83-.65.58-1,.85-.76.54-1.16.82a21.8,21.8,0,0,1-2.68,1.49,23.71,23.71,0,0,1-3.05,1.15,24,24,0,0,1-6.6,1.06,24.46,24.46,0,0,1-6.19-.59,21.58,21.58,0,0,1-2.59-.76c-.39-.15-.77-.28-1.12-.43s-.69-.31-1-.47a12.27,12.27,0,0,1-1.54-.87l-.33-.22c-5.26,6-8.89,9.77-9.52,10.42.44,0,.65-.07-.1.11l.1-.11c-.91,0-2.82-.57,1-4.71.82-.9,1.64-1.82,2.45-2.82h0c-.46,0-1-.43-1.5-.79s-1.09-.72-1.62-1.2a20,20,0,0,1-1.66-1.54,22.57,22.57,0,0,1-1.61-1.81c-.5-.65-1-1.31-1.48-2s-1-1.37-1.49-2a10.9,10.9,0,0,1-1.25-2.09,8.27,8.27,0,0,1-.57-2.21c-.06-.36-.08-.72-.11-1.06s0-.69,0-1a9.39,9.39,0,0,1,.22-1.81,8,8,0,0,1,.42-1.42,7.4,7.4,0,0,1,.41-.91l.18-.32.63-.11.29.23c.19.15.44.37.72.65s.63.61,1,1,.7.81,1.06,1.28.71,1,1,1.52a9.39,9.39,0,0,1,.89,1.76,12.75,12.75,0,0,1,.52,2.07,15,15,0,0,0,.57,2.15c.23.71.51,1.39.79,2.07s.56,1.34.85,2l.45.93c.15.3.32.58.46.86.29.58.63,1.06.92,1.55s.62.87.9,1.22l.08.09c5.06-5.75,9.83-11.74,14.28-17.75l-.37-.18a9.78,9.78,0,0,1-1.72-1.08,12.53,12.53,0,0,1-1.93-1.75,15.84,15.84,0,0,1-2.66-3.85,9.73,9.73,0,0,1-.66-1.57c-.18-.55-.34-1.11-.46-1.69s-.18-1.18-.27-1.78-.14-1.2-.19-1.8-.15-1.2-.18-1.8c-.09-1.2-.19-2.39-.18-3.56s.05-2.33.1-3.43.19-2.17.38-3.18.33-1.94.56-2.79l.3-1.22.35-1.1a14.92,14.92,0,0,1,.61-1.73l.61-1.45.62.15-.13,1.57c-.06.5-.06,1.1-.08,1.77,0,.34,0,.69,0,1.06s0,.78,0,1.2c0,.83.08,1.73.16,2.67s.22,1.93.35,2.94.35,2,.58,3.09.49,2.08.77,3.12a23.07,23.07,0,0,0,1.12,3c.21.48.44.94.63,1.41a13,13,0,0,1,.58,1.36c.15.46.32.9.46,1.34s.25.89.37,1.32.24.84.36,1.25l.15.62c.06.19.12.38.17.58.22.76.37,1.52.56,2.16s.26,1.13.38,1.58c5.45-7.47,10.41-14.95,14.8-22l-.22-.25c-.19-.21-.44-.51-.72-.88s-.67-.82-1-1.32-.78-1.07-1.17-1.7-.84-1.32-1.21-2.06a14.67,14.67,0,0,1-1.1-2.44,20.78,20.78,0,0,1-.68-2.86c-.18-1-.36-2-.59-3s-.44-2-.6-3.08a30.17,30.17,0,0,1-.38-3.05c-.05-.5,0-1-.07-1.49a12.37,12.37,0,0,1,0-1.42,19.69,19.69,0,0,1,.25-2.61l.19-1.14c.09-.37.2-.71.29-1l.27-.89a5.7,5.7,0,0,1,.3-.68l.6-1.27.61.17-.13,1.4a8.48,8.48,0,0,0,0,1.55c0,.29,0,.59,0,.91l.14,1a17.15,17.15,0,0,0,.45,2.27c.2.79.46,1.63.74,2.47s.64,1.72,1,2.6.76,1.78,1.15,2.67.88,1.77,1.38,2.64a20.36,20.36,0,0,1,1.3,2.62,14.23,14.23,0,0,1,.71,2.7,17.51,17.51,0,0,1,.27,2.59,13.48,13.48,0,0,1-.1,2.29c0,.3-.08.58-.13.85a380.72,380.72,0,0,0,21.52-40.19c3.31-4.74,4.45-4.35,3.75-1.88-3.26,11.53-9,23.48-15.72,34.83l.42-.12c.57-.14,1.21-.28,1.89-.42s1.4-.25,2.14-.34a14.15,14.15,0,0,1,2.33-.15,24.18,24.18,0,0,1,2.49.21,16.55,16.55,0,0,0,2.61.13c.86-.06,1.75-.09,2.6-.23s1.7-.24,2.51-.39,1.59-.36,2.33-.57a20.1,20.1,0,0,0,2.06-.7l.91-.35.78-.37a12.75,12.75,0,0,0,1.3-.66l1.14-.65.41.48Z"/><g class="cls-3"><path class="cls-21" d="M1205.81-.36c15.9-5.89,37.85-16.38,46.24,4.84,3.21,8.13,6.52,15.84,10.6,24.16,3.52,7.16,5.78,14.52-.72,20.39-8.49,7.66-35.42,7.29-35.79-8-7.07,21.82-32.28,46.68-57.61,39.79-16.62-4.52-18.4-27.87-4.75-36.89-13.56,10-50.63,16.2-45.91-8.71,3.18-16.77,20.06-20.54,34.79-22.29C1171.56,10.66,1188.06,6.21,1205.81-.36Z"/><path class="cls-5" d="M1182.34,57.35c.53-.63,1-1.31,1.51-2s.93-1.39,1.36-2.11c.85-1.43,1.69-2.87,2.43-4.34l4.46-8.6c1.48-2.8,3-5.49,4.69-8,.84-1.27,1.72-2.49,2.61-3.7s1.87-2.32,2.83-3.44c.48-.56,1-1.09,1.5-1.63l1.69-1.77c1.11-1.21,2.17-2.34,3.26-3.47s2.14-2.21,3.24-3.25c.55-.52,1.09-1,1.66-1.52s1.11-1,1.68-1.47,1.14-1,1.73-1.4,1.18-.9,1.78-1.33,1.2-.87,1.82-1.28,1.24-.82,1.87-1.21l.95-.59,1-.56c.64-.38,1.29-.76,2-1.1,1.32-.72,1.54-5.35,2.9-6l-1.94-.79-3.19,2.15-.68,0h0l3.79-1.05c-.06.47-3.13.86-3.17,1.31a26.46,26.46,0,0,0-.11,2.68,35.57,35.57,0,0,0,.42,5.23,37.35,37.35,0,0,0,1.18,5c.26.82.55,1.62.86,2.41s.64,1.57,1,2.33.75,1.51,1.17,2.23c.21.36.41.73.63,1.08l.68,1c.46.69,1,1.36,1.45,2s1,1.3,1.55,1.92a23.39,23.39,0,0,0,1.67,1.79c.56.59,1.17,1.13,1.76,1.68s1.24,1,1.85,1.55,1.29,1,1.94,1.41l.4-.39-1.56-1.71c-.5-.6-1-1.17-1.49-1.78s-1-1.21-1.4-1.85-.89-1.26-1.3-1.91-.81-1.32-1.2-2-.74-1.35-1.08-2-.67-1.39-1-2.1-.58-1.43-.85-2.14-.5-1.46-.71-2.19-.41-1.48-.58-2.23a34.48,34.48,0,0,1-.71-4.55,32.7,32.7,0,0,1-.08-4.6c0-.76.11-1.53.22-2.28a18.92,18.92,0,0,1,.43-2.22l.26-1-.9.37c-1.51.62-3,1.23-4.49,1.95-.75.33-1.47.72-2.19,1.1l-1.09.57-1.06.61c-.71.41-1.42.82-2.1,1.27s-1.38.88-2,1.36-1.34.94-2,1.45-1.3,1-1.92,1.53-1.25,1-1.85,1.6-1.2,1.11-1.78,1.68c-1.17,1.14-2.3,2.32-3.4,3.52s-2.17,2.42-3.24,3.64-2.16,2.42-3.18,3.71a64.61,64.61,0,0,0-9.53,17c-1.21,3-2.26,6.1-3.31,9.16-.53,1.53-1.07,3.06-1.64,4.56s-1.2,3-1.93,4.43Z"/><path class="cls-5" d="M1211.43,11.12l-.69.22c-.43.16-1.1.35-1.89.67s-1.78.64-2.85,1.08-2.32.89-3.61,1.44l-4.14,1.76-4.52,2c-.79.33-1.57.69-2.36,1.05l-1.2.52c-.4.18-.8.37-1.2.54-1.62.69-3.23,1.45-4.87,2.1s-3.26,1.35-4.85,2c-.81.29-1.6.62-2.39.93s-1.57.58-2.34.87c-1.54.54-3,1.07-4.48,1.52s-2.82.85-4.12,1.21c-.65.17-1.28.31-1.88.49s-1.18.27-1.73.4-1.07.2-1.55.31l-1.35.28c-.82.11-1.49.26-1.95.33l-.71.14-.12.54.67.14c.44.08,1.08.23,1.9.37s1.82.28,3,.34l1.85.11,2,0c1.42-.06,3-.18,4.58-.41s3.31-.55,5-1c.87-.2,1.74-.46,2.62-.68l2.65-.82c1.77-.6,3.55-1.26,5.3-2s3.45-1.57,5.11-2.41,3.27-1.73,4.81-2.62,3-1.78,4.36-2.67,2.64-1.74,3.8-2.55c2.33-1.62,4.17-3.11,5.46-4.14s2-1.68,2-1.68Z"/></g></svg>