<?xml version="1.0" encoding="utf-8"?>
<!-- Svg Vector Icons : http://www.onlinewebfonts.com/icon -->
<!DOCTYPE svg PUBLIC "-//W3C//DTD SVG 1.1//EN" "http://www.w3.org/Graphics/SVG/1.1/DTD/svg11.dtd">
<svg version="1.1" xmlns="http://www.w3.org/2000/svg" xmlns:xlink="http://www.w3.org/1999/xlink" x="0px" y="0px" viewBox="0 0 1000 1000" enable-background="new 0 0 1000 1000" xml:space="preserve">
<metadata> Svg Vector Icons : http://www.onlinewebfonts.com/icon </metadata>
<g><g transform="translate(0.000000,511.000000) scale(0.100000,-0.100000)"><path d="M4060.4,4996.2c-577.7-71.9-1131.4-355.3-1536.9-784.8c-793.5-843.7-922.2-2101.5-316.1-3084.8c191.8-313.9,636.6-732.5,952.7-900.4l48-26.2v202.8v202.7l-189.7,154.8c-407.7,324.8-684.5,782.6-793.5,1305.8c-41.4,191.8-34.9,640.9,10.9,850.2c137.3,621.3,549.4,1170.7,1109.6,1471.5c1201.2,647.5,2707.6,30.5,3117.4-1275.3c117.7-375,130.8-800.1,37.1-1166.3c-58.9-237.6-222.4-579.9-364.1-765.2l-109-143.9l67.6-39.2c37-21.8,102.4-67.6,146-102.5c43.6-32.7,85-61,91.6-61c32.7,0,313.9,460,388,632.2c366.3,850.2,246.4,1809.4-320.4,2550.6c-126.5,167.9-429.5,451.3-597.3,562.4c-276.9,183.1-601.7,318.3-920,383.7C4670.8,5007.1,4269.7,5024.5,4060.4,4996.2z"/><path d="M4199.9,4126.4c-658.4-69.8-1201.2-514.5-1421.4-1166.3c-52.3-159.1-58.9-204.9-58.9-501.4c0-303,4.4-340.1,58.9-501.4c74.1-211.5,174.4-392.4,313.9-566.8l104.6-130.8l6.5,296.5c4.4,281.2,2.2,307.4-61,494.9c-54.5,163.5-65.4,231.1-65.4,401.1c0,383.7,109,649.6,381.5,924.3c268.1,272.5,553.7,390.2,937.4,388c584.2-4.3,1070.4-379.3,1244.8-957c26.1-89.4,39.2-200.6,39.2-348.8c-2.2-185.3-10.9-244.2-63.2-381.5c-54.5-146.1-63.2-196.2-69.8-488.3c-10.9-370.6-15.2-366.2,157-143.9c228.9,296.5,340.1,630,340.1,1013.7c0,361.9-89.4,660.6-281.2,941.8c-104.6,152.6-344.5,385.8-497.1,481.8C4965.1,4071.9,4566.2,4163.4,4199.9,4126.4z"/><path d="M4237,3230.4c-252.9-50.1-464.4-211.4-569-431.6l-56.7-122.1l-6.5-1933.7c-2.2-1236.1-13.1-1935.9-26.2-1935.9c-34.9,0-143.9,163.5-300.8,451.3c-242,449.1-405.5,588.6-739,638.7c-449.1,69.8-882.9-228.9-887.3-610.4c-2.2-117.7,21.8-167.9,976.7-1983.8C3290.9-3963.7,3631-4587.2,3683.3-4643.9c143.9-150.4,93.7-146.1,1999.1-146.1c1055.1,0,1750.6,8.7,1820.3,21.8c357.5,67.6,603.9,316.1,706.3,715c91.5,346.6,165.7,1959.9,130.8,2794.8c-21.8,494.9-24,516.7-80.7,627.9c-80.7,152.6-209.3,279-361.9,348.8c-104.6,50.1-150.4,58.9-329.2,58.9c-113.4,0-226.7-6.5-250.7-15.3c-37.1-15.3-50.1-2.2-82.8,80.7c-54.5,130.8-242,300.8-403.3,361.9c-133,50.1-368.4,67.6-507.9,34.9c-74.1-17.5-78.5-15.3-91.6,43.6c-17.4,91.6-143.9,268.1-248.5,346.6c-189.6,143.9-486.1,207.1-730.3,154.8l-80.6-17.5l-6.6,954.9c-6.5,928.7-8.7,957-54.5,1057.3c-63.2,139.5-143.9,239.8-244.1,309.5C4692.6,3210.7,4428.9,3269.6,4237,3230.4z M4505.2,2731.1c30.5-10.9,80.7-48,109-78.5l54.5-58.8V1026.3c0-1691.7-2.2-1645.9,113.4-1726.6c63.2-43.6,176.6-43.6,259.4,0c106.8,54.5,128.6,139.5,128.6,514.5c0,268.1,6.5,344.4,34.9,383.7c117.7,167.9,453.4,143.9,547.2-39.2c19.6-39.2,28.3-204.9,28.3-584.2v-531.9l63.2-61c106.8-109,228.9-113.4,344.4-13.1c61,52.3,61,56.7,71.9,351L6271-382l80.7,74.1c65.4,58.9,100.3,74.1,170,74.1c50.1,0,117.7-15.3,152.6-32.7c124.3-65.4,130.8-89.4,130.8-551.5c0-468.7,15.3-545,128.6-601.7c82.8-43.6,161.3-43.6,239.8-2.2c98.1,50.1,133,152.6,133,381.5c0,189.7,2.2,202.8,63.2,261.6c111.2,111.2,272.5,113.4,390.2,4.4c52.3-50.2,69.8-87.2,80.7-187.5c28.3-213.6-4.4-1990.4-41.4-2432.9c-52.3-606.1-104.6-763-283.4-848c-91.5-45.8-111.2-45.8-1789.8-41.4l-1696,6.5L3083.8-2490L2135.4-702.4l63.2,48c71.9,58.8,174.4,82.8,285.6,63.2c148.3-24,185.3-69.8,460-558.1c228.9-407.7,388.1-545,636.6-545c148.2,0,237.6,32.7,342.3,119.9c157,130.8,143.9-21.8,157,2169.1c10.9,1794.2,15.3,1979.5,48,2029.6C4197.8,2731.1,4372.2,2781.3,4505.2,2731.1z"/></g></g>
</svg>