<?xml version="1.0" encoding="utf-8"?>
<!-- Svg Vector Icons : http://www.onlinewebfonts.com/icon -->
<!DOCTYPE svg PUBLIC "-//W3C//DTD SVG 1.1//EN" "http://www.w3.org/Graphics/SVG/1.1/DTD/svg11.dtd">
<svg version="1.1" xmlns="http://www.w3.org/2000/svg" xmlns:xlink="http://www.w3.org/1999/xlink" x="0px" y="0px" viewBox="0 0 1000 1000" enable-background="new 0 0 1000 1000" xml:space="preserve">
<metadata> Svg Vector Icons : http://www.onlinewebfonts.com/icon </metadata>
<g><g><g><path d="M744,379.5c0-5.9-2.3-10.5-6.9-13.7L511.8,191.3c-6.5-5.2-13.7-5.2-21.6,0L272.6,365.7c-3.9,3.3-5.9,7.8-5.9,13.7V694c0,5.2,1.6,9.5,4.9,12.7c3.3,3.3,7.2,4.9,11.8,4.9h129.4c5.2,0,9.5-1.6,12.7-4.9c3.3-3.3,4.9-7.5,4.9-12.7V501h149V694c0,5.2,1.6,9.5,4.9,12.7s7.5,4.9,12.7,4.9h129.4c5.2,0,9.5-1.6,12.7-4.9s4.9-7.5,4.9-12.7V379.5z M500,10c67.3,0,130.8,12.9,190.6,38.7c59.8,25.8,111.7,60.8,155.8,104.9c44.1,44.1,79.1,96,104.9,155.8C977.1,369.2,990,432.7,990,500c0,45.1-5.9,88.5-17.6,130.3c-11.8,41.8-28.3,80.8-49.5,117.1c-21.2,36.3-46.7,69.3-76.4,99c-29.7,29.7-62.7,55.2-99,76.4c-36.3,21.2-75.3,37.7-117.1,49.5C588.5,984.1,545.1,990,500,990s-88.5-5.9-130.3-17.6c-41.8-11.8-80.9-28.3-117.1-49.5c-36.3-21.2-69.3-46.7-99-76.4c-29.7-29.7-55.2-62.7-76.4-99c-21.2-36.3-37.7-75.3-49.5-117.1C15.9,588.5,10,545.1,10,500s5.9-88.5,17.6-130.3c11.8-41.8,28.3-80.9,49.5-117.1c21.2-36.3,46.7-69.3,76.4-99c29.7-29.7,62.7-55.2,99-76.4c36.3-21.2,75.3-37.7,117.1-49.5C411.5,15.9,454.9,10,500,10z" fill="#669933"/></g></g><g></g><g></g><g></g><g></g><g></g><g></g><g></g><g></g><g></g><g></g><g></g><g></g><g></g><g></g><g></g></g>
</svg>