<svg xmlns="http://www.w3.org/2000/svg" viewBox="0 0 166.68 152.5">
	<defs><style>.cls-1{fill:#4c4948;}.cls-2{fill:#2ea5df;}</style></defs>
	<title>logo</title>
	<g id="圖層_2" data-name="圖層 2"><g id="bgColor"><g id="logo"><path class="cls-1" d="M6.45,142.82v1.34a3.14,3.14,0,0,0-2-.82,2.59,2.59,0,0,0-2,.83,2.81,2.81,0,0,0-.8,2,2.74,2.74,0,0,0,.8,2,2.64,2.64,0,0,0,2,.81,2.41,2.41,0,0,0,1-.19,2.93,2.93,0,0,0,.48-.26,5.66,5.66,0,0,0,.53-.4v1.37a4.09,4.09,0,0,1-2,.55,3.77,3.77,0,0,1-2.75-1.12A3.73,3.73,0,0,1,.52,146.2a3.86,3.86,0,0,1,.95-2.56,3.78,3.78,0,0,1,3-1.38A3.84,3.84,0,0,1,6.45,142.82Z"/><path class="cls-1" d="M8.32,141.71H9.41v3.87a1.89,1.89,0,0,1,1.29-.53,1.67,1.67,0,0,1,1.28.52,2.12,2.12,0,0,1,.41,1.44v2.9H11.3v-2.8a1.34,1.34,0,0,0-.2-.82.78.78,0,0,0-.65-.26.89.89,0,0,0-.81.35,2.44,2.44,0,0,0-.23,1.24v2.29H8.32Z"/><path class="cls-1" d="M14.26,143.22a.68.68,0,0,1,.21-.5.71.71,0,0,1,1,0,.67.67,0,0,1,.21.5.69.69,0,0,1-.21.51.67.67,0,0,1-.5.21.71.71,0,0,1-.71-.72Zm1.26,2v4.74H14.43v-4.74Z"/><path class="cls-1" d="M18.65,141.71v8.22H17.56v-8.22Z"/><path class="cls-1" d="M24.18,141.71h1.1v8.22h-1.1v-.5a2,2,0,0,1-1.46.63,2.08,2.08,0,0,1-1.61-.71,2.64,2.64,0,0,1-.64-1.81,2.55,2.55,0,0,1,.64-1.77,2,2,0,0,1,3.08,0Zm-2.6,5.83a1.65,1.65,0,0,0,.36,1.11,1.2,1.2,0,0,0,.94.43,1.26,1.26,0,0,0,1-.42,1.8,1.8,0,0,0,0-2.2,1.24,1.24,0,0,0-1-.42,1.21,1.21,0,0,0-.94.43A1.58,1.58,0,0,0,21.58,147.54Z"/><path class="cls-1" d="M27.3,145.19H28.4v.42a2.09,2.09,0,0,1,.54-.43,1.23,1.23,0,0,1,.56-.12,1.77,1.77,0,0,1,.9.28l-.5,1a1,1,0,0,0-.61-.22q-.89,0-.9,1.35v2.46H27.3Z"/><path class="cls-1" d="M35.92,147.81h-3.4a1.44,1.44,0,0,0,.38.93,1.16,1.16,0,0,0,.86.34,1.12,1.12,0,0,0,.68-.19,2.75,2.75,0,0,0,.6-.72l.92.52a3.66,3.66,0,0,1-.45.63,2.41,2.41,0,0,1-.51.43,2,2,0,0,1-.59.25,2.87,2.87,0,0,1-.69.08,2.23,2.23,0,0,1-1.7-.68,2.55,2.55,0,0,1-.64-1.82,2.62,2.62,0,0,1,.62-1.82,2.37,2.37,0,0,1,3.32,0,2.62,2.62,0,0,1,.6,1.83Zm-1.12-.9a1,1,0,0,0-1.1-.88,1.13,1.13,0,0,0-.37.06,1.07,1.07,0,0,0-.32.17,1.12,1.12,0,0,0-.25.27,1.28,1.28,0,0,0-.16.36Z"/><path class="cls-1" d="M37.77,145.19h1.1v.44a1.79,1.79,0,0,1,1.29-.57,1.64,1.64,0,0,1,1.29.52,2.13,2.13,0,0,1,.4,1.44v2.9h-1.1v-2.65a1.73,1.73,0,0,0-.2-1,.78.78,0,0,0-.69-.27.84.84,0,0,0-.77.36,2.48,2.48,0,0,0-.22,1.24v2.29h-1.1Z"/><path class="cls-1" d="M44.92,142.09l1,.38-1.39,2.78-.74-.31Z"/><path class="cls-1" d="M49.9,146l-.91.48q-.21-.44-.53-.44a.36.36,0,0,0-.26.1.33.33,0,0,0-.11.26c0,.18.21.36.63.54a3.77,3.77,0,0,1,1.17.69,1.19,1.19,0,0,1,.3.85,1.49,1.49,0,0,1-.51,1.15,1.81,1.81,0,0,1-2.87-.72l.93-.43a2,2,0,0,0,.3.43.68.68,0,0,0,.48.19c.37,0,.55-.17.55-.51s-.14-.38-.43-.54l-.33-.16-.34-.16a2,2,0,0,1-.67-.47,1.15,1.15,0,0,1-.25-.76,1.35,1.35,0,0,1,.42-1,1.48,1.48,0,0,1,1.05-.4A1.43,1.43,0,0,1,49.9,146Z"/><path class="cls-1" d="M60.18,148.1H57l-.84,1.82H54.9l3.72-8,3.58,8H61ZM59.71,147l-1.11-2.55L57.43,147Z"/><path class="cls-1" d="M63.58,145.19h1.09v.42a2.09,2.09,0,0,1,.54-.43,1.23,1.23,0,0,1,.56-.12,1.77,1.77,0,0,1,.9.28l-.5,1a1,1,0,0,0-.61-.22q-.9,0-.9,1.35v2.46H63.58Z"/><path class="cls-1" d="M69.44,146.21v3.72H68.35v-3.72h-.47v-1h.47v-1.74h1.09v1.74h.85v1Z"/><path class="cls-1" d="M75.35,149.93l1.58-8.07,2.58,5.84,2.67-5.84,1.42,8.07H82.44l-.72-4.53-2.22,4.88-2.16-4.88-.81,4.54Z"/><path class="cls-1" d="M86.73,145.19v2.72q0,1.18.93,1.18t.93-1.18v-2.72h1.09v2.74a3.06,3.06,0,0,1-.14,1,1.65,1.65,0,0,1-.47.67,2.3,2.3,0,0,1-2.82,0,1.67,1.67,0,0,1-.48-.67,2.71,2.71,0,0,1-.14-1v-2.74Z"/><path class="cls-1" d="M94.46,146l-.91.48Q93.34,146,93,146a.36.36,0,0,0-.26.1.33.33,0,0,0-.11.26q0,.27.63.54a3.77,3.77,0,0,1,1.17.69,1.19,1.19,0,0,1,.3.85,1.49,1.49,0,0,1-.51,1.15,1.81,1.81,0,0,1-2.87-.72l.93-.43a2,2,0,0,0,.3.43.68.68,0,0,0,.48.19c.37,0,.55-.17.55-.51s-.14-.38-.43-.54l-.33-.16-.34-.16a2,2,0,0,1-.67-.47,1.15,1.15,0,0,1-.25-.76,1.35,1.35,0,0,1,.42-1,1.48,1.48,0,0,1,1.05-.4A1.43,1.43,0,0,1,94.46,146Z"/><path class="cls-1" d="M100.71,147.81h-3.4a1.44,1.44,0,0,0,.38.93,1.16,1.16,0,0,0,.86.34,1.12,1.12,0,0,0,.68-.19,2.75,2.75,0,0,0,.6-.72l.92.52a3.66,3.66,0,0,1-.45.63,2.41,2.41,0,0,1-.51.43,2.05,2.05,0,0,1-.59.25,2.88,2.88,0,0,1-.69.08,2.23,2.23,0,0,1-1.7-.68,2.55,2.55,0,0,1-.64-1.82,2.62,2.62,0,0,1,.62-1.82,2.37,2.37,0,0,1,3.32,0,2.62,2.62,0,0,1,.6,1.83Zm-1.12-.9a1,1,0,0,0-1.1-.88,1.13,1.13,0,0,0-.37.06,1.07,1.07,0,0,0-.32.17,1.12,1.12,0,0,0-.25.27,1.28,1.28,0,0,0-.16.36Z"/><path class="cls-1" d="M103.65,145.19v2.72q0,1.18.93,1.18t.93-1.18v-2.72h1.09v2.74a3.06,3.06,0,0,1-.14,1,1.65,1.65,0,0,1-.47.67,2.3,2.3,0,0,1-2.82,0,1.67,1.67,0,0,1-.48-.67,2.71,2.71,0,0,1-.14-1v-2.74Z"/><path class="cls-1" d="M108.63,145.19h1.09v.44a2.29,2.29,0,0,1,.54-.45,1.31,1.31,0,0,1,.6-.12,1.45,1.45,0,0,1,1.27.7,1.64,1.64,0,0,1,1.4-.7q1.6,0,1.6,1.94v2.93H114v-2.63a2,2,0,0,0-.17-1,.6.6,0,0,0-.56-.29.71.71,0,0,0-.66.34,2.19,2.19,0,0,0-.21,1.09v2.45h-1.1v-2.62q0-1.26-.73-1.26a.73.73,0,0,0-.67.35,2.15,2.15,0,0,0-.21,1.09v2.45h-1.09Z"/><path class="cls-1" d="M117.84,148.52l1,.38-1.39,2.78-.74-.31Z"/><path class="cls-1" d="M125.59,143.48v6.45h-1.13v-6.45h-1.73v-1.07h4.58v1.07Z"/><path class="cls-1" d="M131.84,145.19h1.1v4.74h-1.1v-.5a2.1,2.1,0,0,1-3.08-.08,2.64,2.64,0,0,1-.64-1.81,2.56,2.56,0,0,1,.64-1.78,2.05,2.05,0,0,1,1.59-.71,2,2,0,0,1,1.48.68Zm-2.6,2.35a1.65,1.65,0,0,0,.36,1.11,1.2,1.2,0,0,0,.94.43,1.26,1.26,0,0,0,1-.42,1.8,1.8,0,0,0,0-2.2,1.24,1.24,0,0,0-1-.42,1.21,1.21,0,0,0-.94.43A1.58,1.58,0,0,0,129.24,147.54Z"/><path class="cls-1" d="M134.74,147.52a2.36,2.36,0,0,1,.73-1.75,2.59,2.59,0,0,1,3.59,0,2.54,2.54,0,0,1,0,3.57,2.51,2.51,0,0,1-1.81.71,2.41,2.41,0,0,1-1.79-.73A2.46,2.46,0,0,1,134.74,147.52Zm1.12,0a1.6,1.6,0,0,0,.38,1.12,1.47,1.47,0,0,0,2.05,0,1.78,1.78,0,0,0,0-2.21,1.46,1.46,0,0,0-2,0A1.52,1.52,0,0,0,135.86,147.54Z"/><path class="cls-1" d="M142.87,149l-2.13-3.86H142l1.45,2.72,1.35-2.72H146l-3.77,7.32H141Z"/><path class="cls-1" d="M148.53,145.19v2.72q0,1.18.93,1.18t.93-1.18v-2.72h1.09v2.74a3.06,3.06,0,0,1-.14,1,1.65,1.65,0,0,1-.47.67,2.3,2.3,0,0,1-2.82,0,1.67,1.67,0,0,1-.48-.67,2.71,2.71,0,0,1-.14-1v-2.74Z"/><path class="cls-1" d="M157,145.19h1.1v4.74H157v-.5a2.1,2.1,0,0,1-3.08-.08,2.64,2.64,0,0,1-.64-1.81,2.56,2.56,0,0,1,.64-1.78,2.05,2.05,0,0,1,1.59-.71,2,2,0,0,1,1.48.68Zm-2.6,2.35a1.65,1.65,0,0,0,.36,1.11,1.2,1.2,0,0,0,.94.43,1.26,1.26,0,0,0,1-.42,1.8,1.8,0,0,0,0-2.2,1.24,1.24,0,0,0-1-.42,1.21,1.21,0,0,0-.94.43A1.58,1.58,0,0,0,154.41,147.54Z"/><path class="cls-1" d="M160.13,145.19h1.1v.44a1.79,1.79,0,0,1,1.29-.57,1.64,1.64,0,0,1,1.29.52,2.13,2.13,0,0,1,.4,1.44v2.9h-1.1v-2.65a1.73,1.73,0,0,0-.2-1,.78.78,0,0,0-.69-.27.84.84,0,0,0-.77.36,2.48,2.48,0,0,0-.22,1.24v2.29h-1.1Z"/><path class="cls-1" d="M52.62,132.27a.58.58,0,0,1-.57-.58V116.28a.58.58,0,1,1,1.15,0v15.41A.58.58,0,0,1,52.62,132.27Z"/><path class="cls-1" d="M52.62,116.85a.57.57,0,0,1-.57-.58v-3.89a.58.58,0,1,1,1.15,0v3.89A.58.58,0,0,1,52.62,116.85Z"/><path class="cls-1" d="M61.48,116H43.76a.58.58,0,1,1,0-1.15H61.48a.58.58,0,1,1,0,1.15Z"/><path class="cls-1" d="M58.45,119.25H46.8A1.76,1.76,0,0,0,45,121v9.25a.58.58,0,1,0,1.15,0V121a.61.61,0,0,1,.61-.61H58.45a.61.61,0,0,1,.61.61v8.07a.61.61,0,0,1-.61.61H57.11a.58.58,0,0,0,0,1.15h1.34a1.76,1.76,0,0,0,1.77-1.76V121A1.76,1.76,0,0,0,58.45,119.25Z"/><path class="cls-1" d="M126.81,118.16a.58.58,0,0,1-.42-1l4.68-5a.58.58,0,0,1,.84.79l-4.68,5A.57.57,0,0,1,126.81,118.16Z"/><path class="cls-1" d="M129,132.21a.58.58,0,0,1-.58-.58V120.15a.58.58,0,0,1,1.15,0v11.49A.58.58,0,0,1,129,132.21Z"/><path class="cls-1" d="M126.14,123.47a.58.58,0,0,1-.42-1l4.68-4.95a.58.58,0,0,1,.84.79l-4.68,4.95A.57.57,0,0,1,126.14,123.47Z"/><path class="cls-1" d="M138.13,118.52h-5.38a.58.58,0,0,1,0-1.15h5.38a.58.58,0,1,1,0,1.15Z"/><path class="cls-1" d="M135.44,132.21a.58.58,0,0,1-.58-.58v-19a.58.58,0,0,1,1.15,0v19A.58.58,0,0,1,135.44,132.21Z"/><path class="cls-1" d="M132.75,132a.58.58,0,0,1-.58-.58V120.81a.58.58,0,1,1,1.15,0v10.63A.58.58,0,0,1,132.75,132Z"/><path class="cls-1" d="M138.13,132a.58.58,0,0,1-.58-.58V120.81a.58.58,0,1,1,1.15,0v10.63A.58.58,0,0,1,138.13,132Z"/><path class="cls-1" d="M144.82,114.71h-4.47a.58.58,0,1,1,0-1.15h4.47a.58.58,0,1,1,0,1.15Z"/><path class="cls-1" d="M144.82,118.52h-4.47a.58.58,0,1,1,0-1.15h4.47a.58.58,0,1,1,0,1.15Z"/><path class="cls-1" d="M141.46,132h-.93a.58.58,0,0,1,0-1.15h.93a.59.59,0,0,0,.55-.61V117.94a.58.58,0,1,1,1.15,0v12.31A1.74,1.74,0,0,1,141.46,132Z"/><path class="cls-1" d="M138.13,116.14a.58.58,0,0,1-.53-.35l-.61-1.42a.58.58,0,0,1,.3-.75.56.56,0,0,1,.75.3l.61,1.42a.57.57,0,0,1-.53.8Z"/><path class="cls-1" d="M38.6,131.67h-14a1.75,1.75,0,0,1-1.75-1.75V114.87a1.75,1.75,0,0,1,1.75-1.75h14a1.75,1.75,0,0,1,1.75,1.75v15.05A1.75,1.75,0,0,1,38.6,131.67Zm-14-17.4a.6.6,0,0,0-.6.6v15.05a.61.61,0,0,0,.6.6h14a.6.6,0,0,0,.6-.6V114.87a.6.6,0,0,0-.6-.6Z"/><path class="cls-1" d="M36.26,117.49H27a.58.58,0,1,1,0-1.15h9.28a.58.58,0,0,1,0,1.15Z"/><path class="cls-1" d="M37.42,119.91H25.82a.58.58,0,0,1,0-1.15h11.6a.58.58,0,1,1,0,1.15Z"/><path class="cls-1" d="M31.62,119.75a.58.58,0,0,1-.58-.58v-3.77a.58.58,0,1,1,1.15,0v3.77A.58.58,0,0,1,31.62,119.75Z"/><path class="cls-1" d="M35.07,124.76h-6.9a1.79,1.79,0,0,1,0-3.57h6.9a1.79,1.79,0,0,1,0,3.57Zm-6.9-2.42a.61.61,0,0,0-.61.61.62.62,0,0,0,.61.66h6.9a.61.61,0,0,0,.61-.61.62.62,0,0,0-.61-.66Z"/><path class="cls-1" d="M25.81,128a.57.57,0,0,1-.29-1.06l4.45-2.8a.57.57,0,1,1,.61,1l-4.45,2.8A.56.56,0,0,1,25.81,128Z"/><path class="cls-1" d="M30.16,129.92a.56.56,0,0,1-.32-.1.57.57,0,0,1-.25-.47v-3.82a.58.58,0,0,1,1.15,0v3l1.32-.51a.57.57,0,1,1,.42,1.07l-2.11.82A.56.56,0,0,1,30.16,129.92Z"/><path class="cls-1" d="M37.46,129.27a.61.61,0,0,1-.29-.07l-6.81-3.71a.58.58,0,0,1,.55-1l6.81,3.71a.58.58,0,0,1-.26,1.08Z"/><path class="cls-1" d="M34.45,127.45a.58.58,0,0,1-.23-1.1l2.9-1.28a.57.57,0,1,1,.46,1.05l-2.9,1.28A.55.55,0,0,1,34.45,127.45Z"/><path class="cls-1" d="M17.68,132H15.42a1.76,1.76,0,0,1-1.76-1.76V113.18a.58.58,0,0,1,1.15,0v17.06a.61.61,0,0,0,.61.61h2.26a.59.59,0,0,0,.61-.55v-1.12a.58.58,0,0,1,1.15,0v1.12A1.73,1.73,0,0,1,17.68,132Z"/><path class="cls-1" d="M18,125.52a.57.57,0,0,1-.31-.09l-3.71-2.37a.58.58,0,1,1,.62-1l3.71,2.36a.58.58,0,0,1-.31,1.06Z"/><path class="cls-1" d="M7.15,123.31a.58.58,0,0,1-.31-.09l-2.77-1.77a.58.58,0,0,1,.62-1l2.77,1.76a.58.58,0,0,1,.17.8A.57.57,0,0,1,7.15,123.31Z"/><path class="cls-1" d="M7.53,125.52a.58.58,0,0,1-.31-1.06l3.71-2.36a.58.58,0,1,1,.62,1l-3.71,2.37A.56.56,0,0,1,7.53,125.52Z"/><path class="cls-1" d="M14.24,119.46a.57.57,0,0,1-.32-1.05L17.44,116a.57.57,0,1,1,.64,1l-3.52,2.36A.56.56,0,0,1,14.24,119.46Z"/><path class="cls-1" d="M11.24,119.46a.56.56,0,0,1-.32-.1l-2.93-2a.57.57,0,1,1,.64-1l2.93,2a.57.57,0,0,1,.16.8A.57.57,0,0,1,11.24,119.46Z"/><path class="cls-1" d="M6.84,118.72H1.4a.58.58,0,0,1,0-1.15H6.84a.58.58,0,0,1,0,1.15Z"/><path class="cls-1" d="M4.12,132.27a.58.58,0,0,1-.57-.58v-19.3a.58.58,0,1,1,1.15,0v19.3A.58.58,0,0,1,4.12,132.27Z"/><path class="cls-1" d="M.57,126.5a.58.58,0,0,1-.48-.9l3.54-5.28a.57.57,0,1,1,1,.64l-3.54,5.29A.58.58,0,0,1,.57,126.5Z"/><path class="cls-1" d="M11.86,113.18a.58.58,0,0,0-1.15,0h0v8.37c0,3.49,0,8.28-3.65,9.33A.58.58,0,0,0,7.22,132l.16,0c4.49-1.29,4.49-6.8,4.48-10.44Z"/><path class="cls-1" d="M70.94,120H66.06a.58.58,0,1,1,0-1.15h4.88a.58.58,0,1,1,0,1.15Z"/><path class="cls-1" d="M79.61,120H74.74a.58.58,0,0,1,0-1.15h4.87a.58.58,0,1,1,0,1.15Z"/><path class="cls-1" d="M78.43,114.06H74.74a.58.58,0,0,0,0,1.15h3.68a.62.62,0,0,1,.61.61v7.72a.61.61,0,0,1-.61.61H67.24a.61.61,0,0,1-.61-.61V115.2l4.54-2.08a.57.57,0,1,0-.48-1l-4.87,2.23a.54.54,0,0,0-.3.51s0,.06,0,.1v8.61a1.76,1.76,0,0,0,1.76,1.76H78.43a1.76,1.76,0,0,0,1.76-1.76v-7.72A1.76,1.76,0,0,0,78.43,114.06Z"/><path class="cls-1" d="M81.62,127a.58.58,0,0,0-.58.58v2.52a.61.61,0,0,1-.61.61H75.93a.61.61,0,0,1-.61-.61v-6H74.17v6a1.76,1.76,0,0,0,1.76,1.76h4.51a1.76,1.76,0,0,0,1.76-1.76v-2.52A.57.57,0,0,0,81.62,127Z"/><path class="cls-1" d="M65.63,131.33a.57.57,0,0,0,.15.8.57.57,0,0,0,.33.1.58.58,0,0,0,.47-.25l5.42-7.8s0,0,0,0H70.62Z"/><path class="cls-1" d="M94,115.21a.58.58,0,0,1-.58-.58v-2a.58.58,0,0,1,1.15,0v2A.58.58,0,0,1,94,115.21Z"/><path class="cls-1" d="M102,115.21H86a.58.58,0,0,1,0-1.15h16a.58.58,0,0,1,0,1.15Z"/><path class="cls-1" d="M102,118.39H86a.54.54,0,1,1,0-1.08h16a.54.54,0,1,1,0,1.08Z"/><path class="cls-1" d="M100.41,128.63H87.64a.58.58,0,1,1,0-1.15h12.77a.58.58,0,1,1,0,1.15Z"/><path class="cls-1" d="M102,131.67H86a.58.58,0,0,1,0-1.15h16a.58.58,0,1,1,0,1.15Z"/><path class="cls-1" d="M99.19,125.87H88.79a1.71,1.71,0,0,1-1.71-1.73l0-2.81a1.75,1.75,0,0,1,1.75-1.72H99.25a1.71,1.71,0,0,1,1.71,1.74l0,2.81A1.75,1.75,0,0,1,99.19,125.87Zm-10.33-5.18a.67.67,0,0,0-.66.65l0,2.81a.64.64,0,0,0,.63.64H99.19a.67.67,0,0,0,.66-.65l0-2.81a.63.63,0,0,0-.18-.45.64.64,0,0,0-.45-.19Z"/><path class="cls-1" d="M100.27,123.28H87.83a.54.54,0,1,1,0-1.08h12.44a.54.54,0,1,1,0,1.08Z"/><path class="cls-1" d="M94,131.37a.57.57,0,0,1-.58-.57v-10a.58.58,0,1,1,1.15,0v10A.57.57,0,0,1,94,131.37Z"/><path class="cls-1" d="M92.73,118l-1.9-3.28a.58.58,0,0,0-.79-.21c-.07,0-.09.12-.14.18h-.15l.07.11a.54.54,0,0,0,0,.51l1.4,2.42a.57.57,0,0,0,.5.29.59.59,0,0,0,.17,0l0,0Z"/><path class="cls-1" d="M95.32,118l1.9-3.28a.58.58,0,0,1,.79-.21c.07,0,.09.12.14.18h.15l-.07.11a.54.54,0,0,1,0,.51l-1.4,2.42a.51.51,0,0,1-.67.24l0,0Z"/><path class="cls-1" d="M122.6,115.55H106.67a.58.58,0,0,1,0-1.15H122.6a.58.58,0,0,1,0,1.15Z"/><path class="cls-1" d="M122.6,126.86H106.67a.58.58,0,1,1,0-1.15H122.6a.58.58,0,1,1,0,1.15Z"/><path class="cls-1" d="M122.6,119.32H106.67a.58.58,0,1,1,0-1.15H122.6a.58.58,0,1,1,0,1.15Z"/><path class="cls-1" d="M122.6,123.09H106.67a.58.58,0,1,1,0-1.15H122.6a.58.58,0,1,1,0,1.15Z"/><path class="cls-1" d="M114.63,126.86a.58.58,0,0,1-.58-.58V115.45a.58.58,0,0,1,1.15,0v10.83A.58.58,0,0,1,114.63,126.86Z"/><path class="cls-1" d="M107.15,132.23a.57.57,0,0,1-.34-1l7.29-5.37a.59.59,0,0,1,.81.12.58.58,0,0,1-.12.81l-7.29,5.37A.57.57,0,0,1,107.15,132.23Z"/><path class="cls-1" d="M122.12,132.23a.57.57,0,0,1-.34-.11l-7.29-5.37a.57.57,0,1,1,.68-.93l7.29,5.38a.57.57,0,0,1-.34,1Z"/><path class="cls-1" d="M112.14,112.25a.57.57,0,1,0-1,.58l1.18,2a.57.57,0,0,0,.5.29h1Z"/><path class="cls-1" d="M117.12,112.25a.57.57,0,1,1,1,.58l-1.18,2a.57.57,0,0,1-.5.29h-1Z"/><path class="cls-1" d="M148.22,117.43a.56.56,0,0,1-.37-.14.58.58,0,0,1-.07-.81l3.67-4.32a.58.58,0,0,1,.44-.2h0a.57.57,0,0,1,.44.2l3.3,3.89a.58.58,0,0,1-.88.75l-2.86-3.37-3.23,3.8A.59.59,0,0,1,148.22,117.43Z"/><path class="cls-1" d="M155.15,131.58h-4.82a1.76,1.76,0,0,1-1.76-1.76v-9.89a1.77,1.77,0,0,1,1.76-1.76h2.87a1.76,1.76,0,0,1,1.76,1.76v4.79a1.76,1.76,0,0,1-1.76,1.76h-3.48v3.34a.61.61,0,0,0,.61.61h4.82a.58.58,0,0,1,0,1.15Zm-5.43-6.25h3.48a.61.61,0,0,0,.61-.61v-4.79a.61.61,0,0,0-.61-.61h-2.87a.61.61,0,0,0-.61.61Z"/><path class="cls-1" d="M154,123H149.6a.58.58,0,0,1,0-1.15H154a.58.58,0,0,1,0,1.15Z"/><path class="cls-1" d="M155.15,131.58a.57.57,0,0,1-.5-.29L153,128.5a.57.57,0,1,1,1-.58l1.61,2.79a.58.58,0,0,1-.21.79A.6.6,0,0,1,155.15,131.58Z"/><path class="cls-1" d="M151.71,118.91a.58.58,0,0,1-.58-.58v-1.47a.58.58,0,0,1,1.15,0v1.47A.58.58,0,0,1,151.71,118.91Z"/><path class="cls-1" d="M166.11,118.23a.58.58,0,0,1-.58-.58v-1.84a.61.61,0,0,0-.61-.61h-7.08a.61.61,0,0,0-.61.61v1.84a.58.58,0,1,1-1.15,0v-1.84a1.76,1.76,0,0,1,1.76-1.76h7.08a1.76,1.76,0,0,1,1.76,1.76v1.84A.57.57,0,0,1,166.11,118.23Z"/><path class="cls-1" d="M161.43,115.16a.58.58,0,0,1-.58-.58v-2a.58.58,0,0,1,1.15,0v2A.58.58,0,0,1,161.43,115.16Z"/><path class="cls-1" d="M163.78,131.58h-4.23a.58.58,0,1,1,0-1.15h4.23a.61.61,0,0,0,.61-.61v-3.13a.61.61,0,0,0-.61-.61h-5.41a.58.58,0,0,1,0-1.15h5.41a1.77,1.77,0,0,1,1.76,1.76v3.13A1.76,1.76,0,0,1,163.78,131.58Z"/><path class="cls-1" d="M160.92,131.58h-1.54a1.76,1.76,0,0,1-1.77-1.76V128l1.15.16v1.67a.61.61,0,0,0,.61.61h1.05Z"/><path class="cls-1" d="M163,117.37h-3.68a1.77,1.77,0,0,0-1.77,1.76v9.13h1.15V123H163a1.76,1.76,0,0,0,1.76-1.76v-2.16A1.76,1.76,0,0,0,163,117.37Zm.61,3.92a.61.61,0,0,1-.61.61h-4.29v-2.77a.61.61,0,0,1,.61-.61H163a.61.61,0,0,1,.61.61Z"/><path class="cls-1" d="M44,97.65a16.3,16.3,0,0,0-.92-1.6v6h-.7V96.71a12.77,12.77,0,0,1-1.22,3.05A4.83,4.83,0,0,0,40.8,99a13.27,13.27,0,0,0,1.55-4.27H41v-.7h1.44V91.94h.7v2.14h1.11v.7H43.11v.38c.31.41,1.19,1.62,1.38,1.93Zm2.33-5.7H47v4.54c0,2-.22,4.31-2.57,5.59a3,3,0,0,0-.47-.54A4,4,0,0,0,46.3,98c-.58.49-1.18,1-1.7,1.41l-.37-.65c.52-.34,1.32-.92,2.11-1.51,0-.24,0-.5,0-.73Zm-.79,4.17a11.82,11.82,0,0,0-1-2.27l.54-.23a10.68,10.68,0,0,1,1,2.24Zm4.63,5.09c.24,0,.29-.29.31-1.38a1.83,1.83,0,0,0,.63.3c-.07,1.3-.24,1.75-.9,1.75H49.12c-.73,0-.94-.24-.94-1.17V91.95h.7v5.3L49.2,97a16.28,16.28,0,0,1,1.92,1.87l-.45.48a16,16,0,0,0-1.79-1.84v3.26c0,.4.06.48.33.48Zm.72-7.4c-.41.78-.89,1.7-1.3,2.3l-.53-.27a15.13,15.13,0,0,0,1.15-2.32Z"/><path class="cls-1" d="M63.26,92.44v9.62h-.72v-.48H54.79v.48h-.7V92.44Zm-.72,8.46V93.11H54.79v7.79ZM59,99.5a3.38,3.38,0,0,0,0,.49,14.46,14.46,0,0,0-2.52.78,2,2,0,0,0-.22-.49.6.6,0,0,0,.43-.59v-.9a12.14,12.14,0,0,1-1.23.4,3.63,3.63,0,0,0-.4-.44,10.71,10.71,0,0,0,2.62-.94H56.09V96.14h5.17v1.66H58.55a5.91,5.91,0,0,1-1.23.72v1.4Zm2.93-4.29v.5H55.36v-.5h2.93v-.72H56V94h2.26v-.64H59V94h2.36v.49H59v.72Zm-5.21,2.17H60.6v-.82H56.73Zm5.16,1a10.09,10.09,0,0,1-1.3.74c.52.35,1,.71,1.34,1l-.5.35a21.36,21.36,0,0,0-3-2.12l.45-.28c.41.23.88.5,1.31.79a10.71,10.71,0,0,0,1.24-.78Z"/><path class="cls-1" d="M71.21,94.3v1.55h3.61v3.92c0,.44-.11.68-.46.8a7.44,7.44,0,0,1-1.94.13,2.87,2.87,0,0,0-.25-.73c.78,0,1.44,0,1.65,0s.24-.07.24-.22V96.57H71.21V102h-.75V96.57H67.77v4.17H67V95.85h3.43V94.3H65.93v-.72h4.79A15.71,15.71,0,0,0,70,92.09l.7-.23a12.8,12.8,0,0,1,.88,1.64l-.21.08h4.5v.72Z"/><path class="cls-1" d="M87.69,100.83v.74H77.88v-.74h5.37a36.59,36.59,0,0,0,1.69-5.41l.84.16c-.49,1.67-1.14,3.83-1.74,5.26Zm-.43-6.06H78.35V94h8.91ZM81,100.32a37.9,37.9,0,0,0-1.08-4.73l.73-.17a38.78,38.78,0,0,1,1.11,4.7Zm1.59-6.44A11.48,11.48,0,0,0,82,92.09l.71-.2a13,13,0,0,1,.58,1.76Z"/><path class="cls-1" d="M99.81,92.4V102H99.1v-.43H91.31V102h-.69V92.4Zm-.71,8.54V93H91.31v7.91Zm-.52-5.1v.48H91.87v-.48h3V95.3H93V93.59h4.38V95.3H95.48v.54Zm-5.92,1h5.09v3.49H92.66Zm.6,3h3.86V97.31H93.25Zm.38-5h3.12v-.79H93.63Zm.38,3h2.36v1.52H94Zm.48,1.11h1.39v-.7H94.49Z"/><path class="cls-1" d="M112.31,97.56v.55h-9.8v-.55H107v-.71h-3.74v-.51H107v-.67h-3.43v-.5H107v-.71h-4.47v-.55H107v-.68h-3.29v-.52H107v-.79h.72v.79h3.21v1.2h1.36v.55h-1.36v1.21h-3.21v.67h3.84v.51h-3.84v.71Zm-8.38,1.11h7v3.38h-.72v-.36h-5.61v.38h-.71Zm.71.53v.71h5.61V99.2Zm5.61,2v-.75h-5.61v.75Zm-2.53-7.25h2.47v-.68h-2.47Zm0,1.26h2.47v-.71h-2.47Z"/><path class="cls-1" d="M117.37,92.08a2.74,2.74,0,0,1-.23.39c.58.37,1.25.82,1.62,1.1l-.35.55c-.36-.29-1-.78-1.59-1.17a8.45,8.45,0,0,1-2,1.94,4,4,0,0,0-.34-.63,7.22,7.22,0,0,0,2.31-2.4Zm.19,7.12a23.56,23.56,0,0,1,1.18,2.21l-.55.29c-.1-.24-.24-.55-.41-.89a14.44,14.44,0,0,0-2.71,1.23,2.15,2.15,0,0,0-.27-.64.61.61,0,0,0,.4-.61v-5.5h3.13V99h-2.47v2l1.66-.64c-.16-.31-.32-.61-.48-.89Zm-1.71-3.34v.93h1.82v-.93Zm1.82,2.52v-1h-1.82v1Zm.16-4.37v.54H116V94Zm6.66-.79V95h-.63V93.85h-4.4V95h-.61V93.22h2.66c-.12-.31-.32-.74-.49-1.06l.63-.27c.2.38.42.87.54,1.18l-.3.16Zm-4.26,5.38H124V102h-.65v-.46h-3.16V102h-.65V94.9h4v2.72h-3.33Zm0-3.09V97h2.7v-1.5Zm0,3.73v1.64h3.16V99.24Z"/><path class="cls-2" d="M102,72.94c2.15-1.12,2.19-4,3.61-4.72.6-.31,1.68-.19,2.56,1.51s.51,4.29-1,5.1c-1.23.64-2.62-1.31-4.38-.45h0c-1.72.95-.92,3.21-2.15,3.84-1.55.81-3.9-.4-4.77-2.07s-.37-2.66.23-3c1.42-.74,3.78.88,5.94-.24Z"/><path class="cls-2" d="M104.56,51.79a3,3,0,1,1-4-1.26A3,3,0,0,1,104.56,51.79Zm5.53,9.32a13.58,13.58,0,0,0-1.47-4.92l-2.57-4.93a4.64,4.64,0,0,0-6.24-2.16,4.59,4.59,0,0,0-2.17,6.3h0a4.21,4.21,0,0,1-7.47,3.89h0a4.59,4.59,0,0,0-6.4-1.84A4.64,4.64,0,0,0,82,63.8l2.57,4.93a13.55,13.55,0,0,0,2.85,3.73c-.83.16-1.67.29-2.5.4-11.61,2.25-37.82,2.68-40.82-13-1.07-5.59.22-9.62,4.09-13,2.87-2.49,6.58-3.75,9.47-6.19A4.55,4.55,0,0,0,59,35.23c-1.61-3.06-6.49-1.9-9.2-1.68-3.53.28-6.94-.92-7.74-4.75C40.48,21.12,57.21,2.55,87.6.12,101.8-1,115.86,5.66,121.86,19,128.89,34.54,122.11,50.57,110.09,61.11Zm-40.58-.56c-.45-3.12-3.43-1.81-5.58-2.87s-1.81-2.6-4.26-3.26A5,5,0,0,0,55,55.66c-1.74,1.84-1,4.58.51,6.3,2.1,2.31,5.16,3,8.53,2.64C66.12,64.46,69.91,63.39,69.51,60.54ZM82.88,10.61a3.6,3.6,0,0,0,1.82,3.77c2.79,1.88,7.37,1.29,8.86-1.94C97.06,4.84,83.67,4.14,82.88,10.61ZM110.35,17c1-2.78-2.26-6.19-5-6.36-3.82-.25-6.31,3.07-4.52,6.57S108.81,21.24,110.35,17Zm3.48,25c-2-1.54-5.4.95-3.49,3.09C112.82,47.8,115.89,43.54,113.83,41.94Zm2.81-12.66c0-7-11.29-4.64-6.94,2.72C112.69,37.05,116.67,34.34,116.65,29.27ZM84.58,58.85a3,3,0,1,0,4,1.26A3,3,0,0,0,84.58,58.85Z"/></g></g></g></svg>