<?xml version="1.0" encoding="iso-8859-1"?>
<!-- Generator: Adobe Illustrator 19.0.0, SVG Export Plug-In . SVG Version: 6.00 Build 0)  -->
<svg version="1.1" id="Layer_1" xmlns="http://www.w3.org/2000/svg" xmlns:xlink="http://www.w3.org/1999/xlink" x="0px" y="0px"
	 viewBox="0 0 297 297" style="enable-background:new 0 0 297 297;" xml:space="preserve">
		<defs><style> g {fill:#4c4948;}</style></defs>
<g>
	<g>
		<g>
			<path d="M146.556,0c-31.527,0-61.649,9.762-87.107,28.231c-2.917,2.116-3.709,6.121-1.819,9.189l23.911,38.79
				c1.006,1.631,2.646,2.77,4.526,3.141c1.878,0.372,3.829-0.057,5.38-1.181c14.882-10.796,32.492-16.502,50.926-16.502
				c47.879,0,86.831,38.952,86.831,86.831c0,47.879-38.952,86.831-86.831,86.831c-18.435,0-36.045-5.706-50.926-16.502
				c-1.551-1.126-3.502-1.552-5.38-1.181c-1.88,0.371-3.52,1.511-4.526,3.141L57.63,259.58c-1.89,3.068-1.098,7.073,1.819,9.189
				C84.907,287.238,115.029,297,146.556,297c81.883,0,148.5-66.617,148.5-148.5S228.44,0,146.556,0z"/>
			<path d="M107.99,197.125c-1.409,2.113-1.541,4.83-0.341,7.07c1.198,2.239,3.531,3.637,6.071,3.637h46.618
				c2.302,0,4.453-1.151,5.73-3.067l34.963-52.445c1.543-2.314,1.543-5.326,0-7.64l-34.963-52.445
				c-1.277-1.916-3.428-3.067-5.73-3.067H113.72c-2.54,0-4.873,1.398-6.071,3.637c-1.199,2.24-1.068,4.957,0.341,7.07l16.171,24.257
				H26.312c-13.437,0-24.368,10.931-24.368,24.368s10.931,24.368,24.368,24.368h97.849L107.99,197.125z"/>
		</g>
	</g>
</g>
<g>
</g>
<g>
</g>
<g>
</g>
<g>
</g>
<g>
</g>
<g>
</g>
<g>
</g>
<g>
</g>
<g>
</g>
<g>
</g>
<g>
</g>
<g>
</g>
<g>
</g>
<g>
</g>
<g>
</g>
</svg>
