<svg xmlns="http://www.w3.org/2000/svg" viewBox="0 0 1839.51 610.63" width="1839.51">
	<defs><style>.cls-1,.cls-2{fill:#fcf7e3;}.cls-1{fill-rule:evenodd;}.cls-3{fill:#1b9cce;}.cls-4{fill:#1fb9e8;}.cls-5{fill:#2ea5df;}</style></defs><title>animation01</title>
	<g id="layer2" data-name="layer 2">
		<g id="frogInWater">
			<g id="frog" transform="translate(0,300)">
				<animateTransform attributeName="transform"
								  attributeType="XML"
								  type="translate"
								  dur="2s"
								  values="0,300;0,0;0,0 "
								  begin="0.5s"
								  fill="freeze"
								  repeatCount="1" />
				<g id="frogBody">
					<path class="cls-1" d="M1046.51,73.25c.38,30.09,1.23,60.19,1.05,90.27-.5,95.17-64.87,177.43-157.14,201.38-118.34,30.71-238.59-47.35-258.48-168a234.24,234.24,0,0,1-3-35.31c-1-58.95-.4-22.73-1.13-81.7-.48-38.51,26.18-71,61.62-75.22,40.25-4.81,74,19.23,82.33,59A56.22,56.22,0,0,1,773,70.48c.48,36,27.46,63.46,63.15,64.45,34.15,1,65.33-28.73,65.38-60.33,0-31.26,14.22-54.6,42.51-67.45,27.51-12.53,54.07-8.49,77.39,11.16,15.55,13.13,24.43,30.26,24.9,50.76C1047.19,102.19,1046.08,40.11,1046.51,73.25ZM738.68,75.47c-.68-22.08-18-38.16-40-37.29C677.16,39,661,56.51,661.69,78.09c.68,21.1,18.91,38.08,39.9,37.13C723.33,114.24,739.42,97,738.68,75.47Zm273.7-2.79c-.35-21.93-17.05-38.32-38.67-37.94-21.87.38-38.59,17.1-38.42,38.38.25,21.87,17.56,38.95,39.25,38.64A38.18,38.18,0,0,0,1012.38,72.67Z"/>
					<path class="cls-2" d="M836.13,301.41a153.12,153.12,0,0,1-135.7-81.87,14.11,14.11,0,0,1,25-13.19,125.18,125.18,0,0,0,221.49,0,14.11,14.11,0,1,1,25,13.19A153.13,153.13,0,0,1,836.13,301.41Z"/>
				</g>
				<circle id="frogEyeR" class="cls-2" cx="705.99" cy="71.22" r="23.25">
				<animateTransform attributeName="transform"
								  attributeType="XML"
								  type="rotate"
								  from="0 695 75"
								  to="360 695 75"
								  dur="0.3s"
								  begin="1.5s"
								  repeatCount="2" />
				</circle>
				<circle id="frogEyeL" class="cls-2" cx="980.27" cy="67.46" r="23.25">
				<animateTransform attributeName="transform"
								  attributeType="XML"
								  type="rotate"
								  from="0 970 71.26"
								  to="360 970 71.26"
								  dur="0.3s"
								  begin="1.5s"
								  repeatCount="2" />	
				</circle>
			</g>
			<g id="Water">
				<g id="water-2" data-name="water">
					<path id="wave004" class="cls-3" d="M1608.62,215.3c-32.18,9.88-110.56,50.38-263.17,27.88-64.42-9.5-159.57-40.57-283.38-20.93-68.77,10.91-137.91,22-237.09,7.43-73.51-10.82-137.34-21.12-226.49-12-33.41,3.42-113.89,21.75-189,15-90.16-8.1-221.75-25.34-258,2V516.21H1608.62Z">
								<animateTransform attributeName="transform"
								  attributeType="XML"
								  type="translate"
								  dur="3s"
								  values="0,0;-40,0;0,0;40,0;0,0"
								  repeatCount="indefinite" />			
	
					</path>
					<path id="wave003" class="cls-4" d="M1569.55,253.47c-33.81,9.9-116.14,50.45-276.42,28C1225.47,272,1125.56,241,995.51,260.73c-72.23,10.95-144.86,22.11-249,7.56-77.2-10.78-144.23-21-237.87-11.87-35.1,3.44-114.08,35-191.41,18.13-96-21-240-28.23-278.06-.86L39,555.21l1530.38-.83Z">
										<animateTransform attributeName="transform"
								  attributeType="XML"
								  type="translate"
								  dur="3s"
								  values="0,0;50,-10;0,0;-50,-10;0,0"
								  repeatCount="indefinite" />	
	
					</path>
					<path id="wave002" class="cls-5" d="M1839.51,267c-33.81,9.95-116.14,50.68-276.41,28.15-67.66-9.51-167.57-40.68-297.62-20.88-72.23,11-144.85,22.21-249,7.58C939.27,271.06,872.24,260.75,778.6,270c-35.09,3.45-119.63,21.91-198.5,15.17-94.69-8.1-229.88-46.57-434.46,2.15l-.15,282.85,1693.87-.75Z">
					<animateTransform attributeName="transform"
								  attributeType="XML"
								  type="translate"
								  dur="3s"
								  values="0,0;-50,10;0,0;50,10;0,0"
								  repeatCount="indefinite" />	
					</path>	
						<path id="wave001" class="cls-4" d="M1694,307.54c-33.81,9.95-116.14,50.68-276.41,28.15C1349.95,326.18,1250,295,1120,314.81c-72.23,11-144.85,22.21-249,7.58-77.2-10.84-144.23-21.15-237.87-11.94-35.09,3.45-119.63,21.91-198.5,15.17-94.69-8.1-229.88-46.57-434.46,2.15L0,610.63l1693.87-.75Z">
					<animateTransform attributeName="transform"
								  attributeType="XML"
								  type="translate"
								  dur="3s"
								  values="0,0;40,-10;0,0;-40,-10;0,0"
								  repeatCount="indefinite" />
					</path>		
				</g>
			</g>
			<g id="frogHandR">
				<path class="cls-2" d="M567.81,213.35s-13.52-7.93-26.84,9-3,27.55,5.33,28,21.31-9.32,23.24-19.73S572.62,215.53,567.81,213.35Z"/>
				<path class="cls-2" d="M593.83,214.43s-2.78-8.09-13.62-4.58-23.5,17.6-12.53,36.3c0,0,10.83,13.59,22.75,3.63C590.43,249.78,606,235.79,593.83,214.43Z"/><path class="cls-2" d="M594.58,210.32s14.6-11,27.2,4.6,7.11,34.17-10.4,32C611.38,246.87,580.11,235,594.58,210.32Z"/>
			</g>
			<g id="frogHandL">
				<path class="cls-2" d="M1104.25,213.71s11.47-9.63,26.35,4.44,6.75,25.76-.93,27.48-21.23-5.58-24.54-15.19S1100.08,216.53,1104.25,213.71Z"/>
				<path class="cls-2" d="M1080.14,216s2-8.32,12.92-5.78,24.43,15.46,15.28,35.1c0,0-9.44,14.53-21.91,5.64C1086.43,251,1070.09,238.41,1080.14,216Z"/>
				<path class="cls-2" d="M1079.07,212s-15.18-9.66-26.17,7-4.09,34.73,12.83,31C1065.73,249.94,1095.27,235.29,1079.07,212Z"/>
			</g>
		</g>
	</g>
</svg>